<?xml version="1.0" encoding="utf-8"?>
<!-- Generator: Adobe Illustrator 19.0.0, SVG Export Plug-In . SVG Version: 6.00 Build 0)  -->
<svg version="1.1" id="Layer_1" xmlns="http://www.w3.org/2000/svg" xmlns:xlink="http://www.w3.org/1999/xlink" x="0px" y="0px"
	 viewBox="-382.3 359.8 100 100" style="enable-background:new -382.3 359.8 100 100;" xml:space="preserve">
<style type="text/css">
	.st0{enable-background:new    ;}
	.st1{fill:#FFFFFF;}
	.st2{fill:none;stroke:#FFFFFF;stroke-width:3;stroke-linejoin:round;stroke-miterlimit:10;}
</style>
<g id="Layer_2">
</g>
<g class="st0">
	<path class="st1" d="M-317.3,292l2.1-0.5c0.2-0.1,0.4-0.2,0.5-0.3s0.2-0.3,0.2-0.6v-17.1c0-0.2-0.1-0.4-0.2-0.6s-0.3-0.3-0.5-0.3
		l-2.1-0.5v-0.8h8.4v0.8l-2,0.5c-0.2,0.1-0.4,0.2-0.5,0.3c-0.1,0.2-0.2,0.4-0.2,0.6v17.1c0,0.2,0.1,0.4,0.2,0.6
		c0.1,0.1,0.3,0.3,0.5,0.3l2,0.5v0.8h-8.4V292z"/>
	<path class="st1" d="M-307.2,292l1.7-0.4c0.2-0.1,0.4-0.2,0.5-0.3s0.2-0.3,0.2-0.6v-10.3c0-0.3-0.1-0.5-0.2-0.6
		c-0.1-0.2-0.4-0.3-0.7-0.4l-1.5-0.5v-0.7l5-1v2.5l0,0c0.4-0.6,0.8-1,1.2-1.4s0.8-0.6,1.2-0.8c0.4-0.2,0.8-0.3,1.2-0.4
		c0.4-0.1,0.8-0.1,1.3-0.1c0.7,0,1.3,0.1,1.9,0.3c0.6,0.2,1.1,0.5,1.6,1s0.8,1,1,1.7c0.3,0.7,0.4,1.5,0.4,2.4v8.2
		c0,0.3,0.1,0.5,0.2,0.6c0.1,0.2,0.3,0.3,0.5,0.3l1.5,0.4v0.8h-7.2V292l1.7-0.4c0.2-0.1,0.4-0.2,0.5-0.3c0.1-0.1,0.2-0.4,0.2-0.6
		v-7.2c0-0.7,0-1.3-0.1-1.9s-0.2-1-0.5-1.4c-0.2-0.4-0.6-0.7-1-0.9c-0.4-0.2-1-0.3-1.7-0.3c-0.3,0-0.6,0-1,0.1
		c-0.3,0.1-0.7,0.2-1,0.3c-0.3,0.1-0.6,0.3-0.9,0.5s-0.6,0.5-0.8,0.7v10.2c0,0.2,0.1,0.4,0.2,0.6c0.1,0.1,0.3,0.2,0.5,0.3l1.5,0.4
		v0.8h-7.2v-0.8L-307.2,292L-307.2,292z"/>
	<path class="st1" d="M-275.8,289.5v1.2c-0.3,0.3-0.7,0.6-1.1,0.9s-0.9,0.6-1.4,0.8c-0.5,0.2-1.1,0.4-1.7,0.6s-1.2,0.2-1.8,0.2
		c-1,0-2-0.2-2.8-0.5c-0.9-0.3-1.6-0.9-2.2-1.5c-0.6-0.7-1.1-1.5-1.4-2.5s-0.5-2.1-0.5-3.4c0-1.1,0.2-2.1,0.5-3.1s0.8-1.8,1.4-2.6
		c0.6-0.7,1.4-1.3,2.2-1.8c0.9-0.4,1.9-0.7,3-0.7c0.9,0,1.8,0.2,2.5,0.5s1.4,0.8,1.9,1.4s0.9,1.2,1.1,1.9c0.3,0.7,0.4,1.5,0.4,2.2
		c0,0.1,0,0.2,0,0.3c0,0.1,0,0.2,0,0.3s0,0.2,0,0.3c0,0.1,0,0.2,0,0.3h-10.1c0,2.3,0.5,4,1.3,5.2c0.9,1.2,2.2,1.8,3.9,1.8
		c0.6,0,1.1-0.1,1.6-0.2s0.9-0.3,1.3-0.5s0.8-0.4,1.1-0.6c0.3-0.2,0.6-0.4,0.8-0.6l0,0L-275.8,289.5L-275.8,289.5z M-278.6,283.3
		c0-0.7-0.1-1.3-0.2-1.9s-0.3-1.1-0.6-1.6c-0.3-0.5-0.6-0.8-1-1.1c-0.4-0.3-0.9-0.4-1.5-0.4s-1.1,0.1-1.6,0.4
		c-0.5,0.2-0.9,0.6-1.2,1c-0.3,0.4-0.6,0.9-0.8,1.6c-0.2,0.6-0.4,1.3-0.5,2.1h7.4L-278.6,283.3L-278.6,283.3z"/>
	<path class="st1" d="M-274,292l8.1-11.9l1-1.4l0,0h-5.6c-0.3,0-0.6,0.1-0.8,0.2c-0.2,0.1-0.3,0.3-0.4,0.5l-0.9,2.4h-1v-4.3h12v0.5
		l-8.3,12.1l-1,1.4l0,0h6.3c0.3,0,0.5-0.1,0.7-0.2s0.4-0.3,0.4-0.5l0.8-2.7h1v4.6h-12.6V292H-274z"/>
	<path class="st1" d="M-259.8,292l1.9-0.4c0.2-0.1,0.4-0.2,0.5-0.3s0.2-0.3,0.2-0.6v-10.3c0-0.3-0.1-0.5-0.2-0.6
		c-0.1-0.2-0.4-0.3-0.7-0.4l-1.6-0.6v-0.6l5.2-1v13.5c0,0.2,0.1,0.4,0.2,0.6c0.1,0.1,0.3,0.2,0.5,0.3l1.7,0.4v0.8h-7.6L-259.8,292
		L-259.8,292z M-256.1,273.6c-0.3,0-0.5,0-0.7-0.1c-0.2-0.1-0.4-0.2-0.6-0.4c-0.2-0.2-0.3-0.4-0.4-0.6c-0.1-0.2-0.2-0.5-0.2-0.8
		s0.1-0.5,0.2-0.7s0.2-0.4,0.4-0.6c0.2-0.2,0.4-0.3,0.6-0.4s0.5-0.1,0.7-0.1c0.2,0,0.5,0,0.8,0.1c0.2,0.1,0.5,0.2,0.6,0.4
		c0.2,0.2,0.3,0.4,0.4,0.6s0.1,0.5,0.1,0.7c0,0.3,0,0.5-0.1,0.8c-0.1,0.2-0.2,0.4-0.4,0.6c-0.2,0.2-0.4,0.3-0.6,0.4
		C-255.6,273.6-255.9,273.6-256.1,273.6z"/>
	<path class="st1" d="M-249,279h-2.5v-0.9c0.4-0.1,0.8-0.2,1.1-0.3c0.3-0.1,0.6-0.2,0.8-0.4c0.2-0.2,0.4-0.4,0.6-0.6
		s0.2-0.6,0.2-1.1l0.1-2l2.3-0.5v4.4h5.4l-0.4,1.3h-5v10.6c0,0.3,0.1,0.6,0.3,0.8c0.2,0.2,0.5,0.4,0.8,0.5c0.3,0.1,0.6,0.2,0.9,0.3
		c0.3,0.1,0.6,0.1,0.9,0.1c0.2,0,0.4,0,0.6-0.1s0.4-0.1,0.6-0.1s0.4-0.1,0.5-0.2c0.2-0.1,0.3-0.1,0.4-0.2h0.2v0.9
		c-0.1,0.1-0.3,0.2-0.6,0.4c-0.3,0.2-0.6,0.3-0.9,0.5c-0.4,0.1-0.7,0.3-1.2,0.4c-0.4,0.1-0.9,0.2-1.3,0.2c-0.6,0-1.1-0.1-1.5-0.2
		c-0.5-0.1-0.9-0.3-1.2-0.6c-0.3-0.3-0.6-0.6-0.8-1c-0.2-0.4-0.3-0.8-0.3-1.3L-249,279L-249,279z"/>
</g>
<path class="st2" d="M-341.4,278.5v6.8l-16.8,10.1l-16.5-10.2v-6.8"/>
<line class="st2" x1="-336.3" y1="275.6" x2="-336.3" y2="287"/>
<path class="st2" d="M-336.3,287l1.7,2.5l-1.7,3l-1.7-3L-336.3,287z"/>
<path class="st2" d="M-358,287.4l-26.5-14l26.5-11.5l26.1,11.5L-358,287.4z"/>
<path class="st2" d="M-305.4,409.6v10.9l-26.9,16.2l-26.4-16.3v-10.9"/>
<line class="st2" x1="-297.2" y1="404.9" x2="-297.2" y2="423.2"/>
<path class="st2" d="M-297.2,423.2l2.7,4l-2.7,4.8l-2.7-4.8L-297.2,423.2z"/>
<path class="st2" d="M-332,423.7l-42.4-22.4l42.4-18.4l41.8,18.4L-332,423.7z"/>
</svg>
