<?xml version="1.0" encoding="utf-8"?>
<!-- Generator: Adobe Illustrator 19.0.0, SVG Export Plug-In . SVG Version: 6.00 Build 0)  -->
<svg version="1.1" id="Layer_1" xmlns="http://www.w3.org/2000/svg" xmlns:xlink="http://www.w3.org/1999/xlink" x="0px" y="0px"
	 viewBox="-453.5 265 192.5 98" style="enable-background:new -453.5 265 192.5 98;" xml:space="preserve">
<style type="text/css">
	.st0{fill:#3B9B66;stroke:#FFFFFF;stroke-width:3;stroke-linejoin:round;stroke-miterlimit:10;}
	.st1{fill:none;stroke:#FFFFFF;stroke-width:1.5;stroke-linejoin:round;stroke-miterlimit:10;}
	.st2{fill:none;stroke:#FFFFFF;stroke-width:3;stroke-linejoin:round;stroke-miterlimit:10;}
	.st3{fill:#FFFFFF;}
	.st4{font-family:'SegoeUI';}
	.st5{font-size:17.8934px;}
</style>
<rect x="-430.7" y="251.3" class="st0" width="140" height="120"/>
<g id="Layer_2">
</g>
<path class="st1" d="M-360.9,300.4l0,3.3l-8.2,4.9l-8.1-5l0-3.3"/>
<line class="st1" x1="-358.4" y1="299" x2="-358.4" y2="304.6"/>
<path class="st1" d="M-358.4,304.6l0.8,1.2l-0.8,1.5l-0.8-1.5L-358.4,304.6z"/>
<path class="st1" d="M-369,304.8l-13-6.9l13-5.6l12.8,5.6L-369,304.8z"/>
<path class="st2" d="M-734.4,640.6v10.9l-26.9,16.2l-26.4-16.3v-10.9"/>
<line class="st2" x1="-726.2" y1="635.9" x2="-726.2" y2="654.2"/>
<path class="st2" d="M-726.2,654.2l2.7,4l-2.7,4.8l-2.7-4.8L-726.2,654.2z"/>
<path class="st2" d="M-761,654.7l-42.4-22.4l42.4-18.4l41.8,18.4L-761,654.7z"/>
<text transform="matrix(1 8.725298e-004 -8.725298e-004 1 -391.2941 328.2081)" class="st3 st4 st5">Inezit</text>
</svg>
