<?xml version="1.0" encoding="utf-8"?>
<!-- Generator: Adobe Illustrator 19.0.0, SVG Export Plug-In . SVG Version: 6.00 Build 0)  -->
<svg version="1.1" xmlns="http://www.w3.org/2000/svg" xmlns:xlink="http://www.w3.org/1999/xlink" x="0px" y="0px"
	 viewBox="0 0 350 450" style="enable-background:new 0 0 350 450;" xml:space="preserve">
<style type="text/css">
	.st0{display:none;}
	.st1{display:inline;}
	.st2{fill:#FFD9B2;}
	.st3{fill:none;}
	.st4{fill:#FFECD9;}
	.st5{fill:#FFD096;}
	.st6{fill:#FFE1C1;}
	.st7{fill:#FFE2C5;}
	.st8{fill:#FFB9A2;}
	.st9{fill:#FF8B64;}
	.st10{fill:#B5C25D;}
	.st11{fill:#A3B234;}
	.st12{fill:#FFF6F0;}
	.st13{fill:#7A8627;}
	.st14{fill:#26403D;}
	.st15{fill:#BFA385;}
	.st16{fill:#FFE8D1;}
	.st17{fill:#FFF7EE;}
	.st18{fill:#BFB5AA;}
	.st19{fill:#9ECBFF;}
	.st20{fill:#FFF1E3;}
	.st21{fill:#BFAE9D;}
	.st22{fill:#B1D5FF;}
	.st23{fill:#FFF3E8;}
	.st24{fill:#FFD9AB;}
	.st25{fill:none;stroke:#000000;stroke-miterlimit:10;}
	.st26{fill:#C5E0FF;}
	.st27{fill:#BECEE0;}
	.st28{fill:#7798BF;}
	.st29{fill:#DFE7F0;}
	.st30{fill:#ECF5FF;}
	.st31{fill:#D8EAFF;}
	.st32{fill:#4F6680;}
</style>
<g id="Layer_2">
</g>
<g id="Layer_1" class="st0">
	<g id="XMLID_119_" class="st1">
		<path id="XMLID_865_" class="st2" d="M161.6,177.9v46.5l13.4,7.8v-46.5l94-54.3l5.2,3v56l-94,54.3l-5.2-3v161l13.4-7.8l23.5-13.6
			l3.3-1.9v-42.6l-13.4-7.8v-3.9l53.7-31l13.4,7.8v46.5l13.4-7.8V108.1L161.6,177.9z M201.9,309.6l-13.4,7.8v-15.5l11.4-6.6l2.1-1.2
			V309.6z M201.9,286.4l-13.4,7.8v-15.5l11.4-6.6l2.1-1.2V286.4z M201.9,262.5l-13.4,7.8v-15.5l11.4-6.6l2.1-1.2V262.5z M222,298
			l-13.4,7.8v-15.5l11.4-6.5l2.1-1.2V298z M222,274.8l-13.4,7.8V267l11.4-6.6l2.1-1.2V274.8z M222,250.9l-13.4,7.8v-15.5l11.4-6.6
			l2.1-1.2V250.9z M242.1,286.4l-13.4,7.8v-15.5l11.4-6.6l2.1-1.2V286.4z M242.1,263.1l-13.4,7.8v-15.5l11.4-6.6l2.1-1.2V263.1z
			 M242.1,239.3l-13.4,7.8v-15.5l11.4-6.6l2.1-1.2V239.3z M263,274.2l-13.4,7.8v-15.5l11.4-6.6l2.1-1.2V274.2z M263,250.9l-13.4,7.7
			v-15.5l11.4-6.6l2.1-1.2V250.9z M263,227.1l-13.4,7.8v-15.5l11.4-6.6l2.1-1.2V227.1z"/>
		<polygon id="XMLID_402_" class="st2" points="262.3,309.6 262.3,352.3 242.1,363.9 242.1,332.9 228.7,340.7 228.7,371.7 
			218.6,377.5 218.6,334.9 		"/>
		<line id="XMLID_255_" class="st3" x1="242.1" y1="363.9" x2="228.7" y2="371.7"/>
		<polygon id="XMLID_403_" class="st4" points="282.4,108.1 161.6,177.9 54.2,115.9 81,100.4 81,115.9 161.6,162.4 255.6,108.1 
			255.5,92.6 		"/>
		<polygon id="XMLID_440_" class="st5" points="161.6,177.9 161.6,224.4 54.2,162.4 54.2,115.9 		"/>
		<polygon id="XMLID_272_" class="st4" points="175,232.1 121.3,263.1 0.5,193.4 54.2,162.4 161.6,224.4 		"/>
		<path id="XMLID_323_" class="st6" d="M121.3,263.1l0,170.5l0,15.5l53.7-31v-186L121.3,263.1z M154.9,414.3l-13.4,7.8v-23.3
			l11.4-6.6l2.1-1.2V414.3z M154.9,375.5l-13.4,7.8V360l11.4-6.6l2.1-1.2V375.5z M154.9,336.8l-13.4,7.8v-23.3l11.4-6.6l2.1-1.2
			V336.8z M154.9,298l-13.4,7.8v-23.3l11.4-6.6l2.1-1.2V298z"/>
		<path id="XMLID_886_" class="st5" d="M121.3,263.1L0.5,193.4v186l120.8,69.8l0-15.5L121.3,263.1z M34,367.8L20.6,360v-15.5
			l2.1,1.2l11.4,6.6V367.8z M34,336.9l-13.4-7.8v-15.5l2.1,1.2l11.4,6.6V336.9z M34,305.9l-13.4-7.8v-15.5l2.1,1.2v0l11.4,6.6V305.9
			z M34,274.3l-13.4-7.8V251l2.1,1.2l11.4,6.6V274.3z M34,243.9l-13.4-7.8v-15.5l2.1,1.2l11.4,6.6V243.9z M54.2,379.4l-13.4-7.8
			v-15.5l2.1,1.2l11.4,6.6V379.4z M54.2,348.5l-13.4-7.8v-15.5l2.1,1.2l11.4,6.6V348.5z M54.2,317.5l-13.4-7.8v-15.5l2.1,1.2
			l11.4,6.6V317.5z M54.2,285.9l-13.4-7.8v-15.5l2.1,1.2l11.4,6.6V285.9z M54.2,255.5l-13.4-7.8v-15.5l2.1,1.2l11.4,6.6V255.5z
			 M80.6,394.7l-13.4-7.8v-15.5l2.1,1.2l11.4,6.6V394.7z M80.6,363.8L67.2,356v-15.5l2.1,1.2l11.4,6.6V363.8z M80.6,332.8L67.2,325
			v-15.5l2.1,1.2l11.4,6.6V332.8z M80.6,301.2l-13.4-7.8v-15.5l2.1,1.2l11.4,6.6V301.2z M80.6,270.8L67.2,263v-15.5l2.1,1.2
			l11.4,6.6V270.8z M100.7,406.3l-13.4-7.8V383l2.1,1.2l11.4,6.6V406.3z M100.7,375.4l-13.4-7.8v-15.5l2.1,1.2l11.4,6.6V375.4z
			 M100.7,344.4l-13.4-7.8v-15.5l2.1,1.2l11.4,6.6V344.4z M100.7,312.8l-13.4-7.7v-15.5l2.1,1.2l11.4,6.6V312.8z M100.7,282.4
			l-13.4-7.7v-15.5l2.1,1.2l11.4,6.6V282.4z"/>
		<polygon id="XMLID_386_" class="st4" points="349.5,131.4 295.8,162.4 282.4,154.6 282.4,108.1 255.5,92.6 215.3,69.3 228.7,61.6 
					"/>
		<polygon id="XMLID_368_" class="st5" points="295.8,162.4 295.8,348.4 282.4,340.6 282.4,154.6 		"/>
		<path id="XMLID_817_" class="st7" d="M295.8,162.4v186l53.7-31v-186L295.8,162.4z M329.4,313.5L329.4,313.5l-13.4,7.8V298
			l11.4-6.6l2.1-1.2v0h0V313.5z M329.4,274.8L329.4,274.8l-13.4,7.8v-23.3l11.4-6.6l2.1-1.2v0h0V274.8z M329.4,236l-13.4,7.7v-23.3
			l11.4-6.6l2.1-1.2v0h0V236z M329.4,197.2L329.4,197.2L316,205v-23.3l11.4-6.6l2.1-1.2v0h0V197.2z"/>
		<path id="XMLID_819_" class="st4" d="M215.3,69.3L175,46.1l-94,54.3l13.4,7.8l67.1,38.8l80.6-46.5l13.4-7.8L215.3,69.3z
			 M195.1,96.5L168.3,112l-26.8-15.5V76.6l26.8-15l3.4,1.9l23.5,13.6V96.5z"/>
		<polygon id="XMLID_434_" class="st8" points="195.1,77.1 168.3,92.1 168.3,61.6 171.6,63.5 		"/>
		<polygon id="XMLID_300_" class="st9" points="161.6,146.9 161.6,162.4 81,115.9 81,100.4 94.4,108.1 		"/>
		<polygon id="XMLID_412_" class="st8" points="255.6,108.1 161.6,162.4 161.6,146.9 242.1,100.4 255.5,92.6 		"/>
		<path id="XMLID_447_" class="st3" d="M228.7,340.7"/>
		<path id="XMLID_265_" class="st3" d="M228.7,394.9"/>
		<path id="XMLID_446_" class="st3" d="M269,317.4"/>
		<path id="XMLID_445_" class="st3" d="M228.7,340.7"/>
		<polygon id="XMLID_371_" class="st4" points="218.6,334.9 218.6,393 215.3,394.9 215.3,336.8 		"/>
		<polyline id="XMLID_253_" class="st3" points="211.9,335.2 211.9,381.3 211.9,393 215.3,394.9 		"/>
		<polygon id="XMLID_354_" class="st4" points="269,305.8 269,363.9 265.6,365.8 265.6,307.7 		"/>
		<polygon id="XMLID_308_" class="st10" points="274.2,134.4 180.2,188.6 175,185.6 269,131.4 		"/>
		<g id="XMLID_405_">
			<path id="XMLID_898_" class="st11" d="M180.2,188.6v56l94-54.3v-56L180.2,188.6z M248.2,153.7l2.2-1.3l-0.7,3.2l-2.2,1.3
				L248.2,153.7z M214.8,177.7l2.2-1.2l3.2-1.9l1.1,0.6l1.1,0.6l0,10.6l-0.5,1.2l-0.6,1.2l-1.1,0.6l-5.4,3.1V177.7z M205.1,183.3
				l6.5-3.7v15l-2.2,1.2v-6.2l-2.2,1.2v6.2l-2.2,1.2V183.3z M190.1,186.9l2.2-1.3l-0.7,3.2l-2.2,1.3L190.1,186.9z M194.3,204.6
				l-7.6,4.4v-15l2.2-1.3v12.5l3.2-1.9v-12.5l2.2-1.2V204.6z M201.9,217.5l-2.2,1.3l-2.2,1.3v5.2l-2.2,1.3V211l6.7-3.9V217.5z
				 M201.8,200.2l-3.2-3.1v5l-2.2,1.2v-15l6.5-3.7v10l-2.2,1.2l3.2,3.1L201.8,200.2z M209.7,218.2l-3.4-3.2v5.2l-2.2,1.3v-15.6
				l6.7-3.9v10.4l-2.2,1.3l3.4,3.2L209.7,218.2z M215.3,214.9l-2.2,1.3v-15.6l2.2-1.3V214.9z M223.2,197.4l-3.4,1.9l0,3.9l3.3-1.9
				v2.6c0,0-3.3,1.9-3.3,1.9l0,3.8l3.3-2v2.6l-3.4,2l-2.2,1.3v-15.6l5.6-3.2V197.4z M231.1,205.9l-4.5,2.6l-1.7-14.6l2.2-1.3l1.7,12
				l1.7-13.9l2.2-1.3L231.1,205.9z M231,178.3v5l-2.2,1.2v-15l6.5-3.7v10l-2.2,1.2L231,178.3z M236.7,202.6l-2.2,1.3v-15.6l2.2-1.3
				V202.6z M237.5,164.6l6.5-3.7v10l-2.2,1.2l3.2,3.1l-2.2,1.2l-3.2-3.1v5l-2.2,1.2V164.6z M246.8,194.8l-0.5,1.3l-0.6,1.3l-1.1,0.6
				l-5.6,3.2v-15.6l2.2-1.3l3.4-1.9l1.1,0.6l1.1,0.6V194.8z M248.3,173.3l-2.2,1.3v-15l6.5-3.7v15l-2.2,1.2v-6.2l-2.2,1.3V173.3z
				 M255.6,178.6l-4.5,13l4.5-2.6v2.6l-6.7,3.9v-2.6l4.5-13l-4.5,2.6v-2.6l6.7-3.9V178.6z M254.8,169.6v-15l5.4-3.1v2.5l-3.2,1.9
				l0.1,9.9l3.2-1.9v2.5l-3.2,1.9L254.8,169.6z M264.5,186.4l-2.2,1.3v-6.5l-2.2,1.3v6.5l-2.2,1.3v-15.6l6.7-3.9V186.4z
				 M267.8,149.6l-3.2,1.9l0,3.8l3.2-1.9v2.5c0,0-3.2,1.8-3.2,1.8l0,3.7l3.2-1.9v2.5l-3.2,1.9l-2.2,1.2l0-15l5.4-3.1V149.6z"/>
			<polygon id="XMLID_475_" class="st11" points="262.3,174.7 262.3,178.6 260,179.9 260,176 			"/>
			<polygon id="XMLID_471_" class="st11" points="244.5,185.1 244.5,195.5 241.2,197.4 241.2,187.1 			"/>
			<polygon id="XMLID_473_" class="st11" points="208.6,205.9 208.6,211 206.4,212.3 206.4,207.2 			"/>
			<polygon id="XMLID_476_" class="st11" points="199.6,211 199.6,216.2 197.4,217.5 197.4,212.3 			"/>
			<polygon id="XMLID_479_" class="st11" points="250.5,159.6 250.5,163.4 248.3,164.6 248.3,160.9 			"/>
			<polygon id="XMLID_467_" class="st11" points="241.8,164.6 241.8,169.6 239.7,170.8 239.7,165.9 			"/>
			<polygon id="XMLID_478_" class="st11" points="233.2,169.6 233.2,174.6 231,175.8 231,170.8 			"/>
			<polygon id="XMLID_486_" class="st11" points="220.2,177.1 220.2,187.1 217,189 217,179 			"/>
			<polygon id="XMLID_465_" class="st11" points="209.4,183.3 209.4,187.1 207.2,188.3 207.2,184.6 			"/>
			<polygon id="XMLID_436_" class="st11" points="200.7,188.3 200.7,193.3 198.6,194.6 198.6,189.6 			"/>
		</g>
		<g id="XMLID_411_">
			<polygon id="XMLID_455_" class="st12" points="250.5,152.4 249.7,155.6 247.5,156.9 248.2,153.7 			"/>
			<g id="XMLID_408_">
				<path id="XMLID_508_" class="st12" d="M257.8,174.7v15.6l2.2-1.3v-6.5l2.2-1.3v6.5l2.2-1.3v-15.6L257.8,174.7z M262.3,178.6
					l-2.2,1.3V176l2.2-1.3V178.6z"/>
				<polygon id="XMLID_437_" class="st12" points="255.6,178.6 251.1,191.6 255.6,189 255.6,191.6 248.8,195.5 248.8,192.9 
					253.3,179.9 248.8,182.5 248.8,179.9 255.6,176.1 				"/>
				<path id="XMLID_513_" class="st12" d="M245.6,183.2l-1.1-0.6l-3.4,1.9l-2.2,1.3v15.6l5.6-3.2l1.1-0.6l0.6-1.3l0.5-1.3v-11
					L245.6,183.2z M244.5,195.5l-3.4,1.9v-10.4l3.4-1.9V195.5z"/>
				<polygon id="XMLID_441_" class="st12" points="236.7,187.1 236.7,202.6 234.4,203.9 234.4,188.4 				"/>
				<polygon id="XMLID_444_" class="st12" points="232.7,189.3 231.1,205.9 226.6,208.4 224.9,193.9 227.1,192.6 228.8,204.6 
					230.5,190.6 				"/>
				<path id="XMLID_448_" class="st12" d="M223.2,197.4l-3.4,1.9l0,3.9l3.3-1.9v2.6c0,0-3.3,1.9-3.3,1.9l0,3.8l3.3-2v2.6l-3.4,2
					l-2.2,1.3v-15.6l5.6-3.2V197.4z"/>
				<polygon id="XMLID_449_" class="st12" points="215.3,199.4 215.3,214.9 213.1,216.2 213.1,200.7 				"/>
				<path id="XMLID_516_" class="st12" d="M208.6,213.6l2.2-1.3V202l-6.7,3.9v15.6l2.2-1.3v-5.2l3.4,3.2l2.2-1.3L208.6,213.6z
					 M206.4,207.2l2.2-1.3v5.2l-2.2,1.3V207.2z"/>
				<path id="XMLID_511_" class="st12" d="M195.1,211v15.6l2.2-1.3v-5.2l2.2-1.3l2.2-1.3v-10.4L195.1,211z M199.6,216.2l-2.2,1.3
					v-5.2l2.2-1.3V216.2z"/>
				<path id="XMLID_452_" class="st12" d="M267.8,149.6l-3.2,1.9l0,3.8l3.2-1.9v2.5c0,0-3.2,1.8-3.2,1.8l0,3.7l3.2-1.9v2.5l-3.2,1.9
					l-2.2,1.2l0-15l5.4-3.1V149.6z"/>
				<polygon id="XMLID_454_" class="st12" points="260.2,154 257,155.9 257,165.8 260.2,163.9 260.2,166.4 257,168.4 254.8,169.6 
					254.8,154.6 260.2,151.5 				"/>
				<path id="XMLID_514_" class="st12" d="M246.1,159.6v15l2.2-1.3v-6.2l2.2-1.3v6.2l2.2-1.2v-15L246.1,159.6z M250.5,163.4
					l-2.2,1.2v-3.7l2.2-1.2V163.4z"/>
				<path id="XMLID_484_" class="st12" d="M241.8,172.1l2.2-1.2v-10l-6.5,3.7v15l2.2-1.2v-5l3.2,3.1l2.2-1.2L241.8,172.1z
					 M239.7,165.9l2.2-1.2v5l-2.2,1.2V165.9z"/>
				<path id="XMLID_504_" class="st12" d="M228.8,169.6v15l2.2-1.2v-5l2.2-1.2l2.2-1.2v-10L228.8,169.6z M233.2,174.6l-2.2,1.2v-5
					l2.2-1.2V174.6z"/>
				<path id="XMLID_481_" class="st12" d="M221.3,175.2l-1.1-0.6l-3.2,1.9l-2.2,1.2v15l5.4-3.1l1.1-0.6l0.6-1.2l0.5-1.2l0-10.6
					L221.3,175.2z M220.2,187.1L217,189v-10l3.2-1.9V187.1z"/>
				<path id="XMLID_503_" class="st12" d="M205.1,183.3v15l2.2-1.2v-6.2l2.2-1.2v6.2l2.2-1.2v-15L205.1,183.3z M209.4,187.1
					l-2.2,1.2v-3.7l2.2-1.2V187.1z"/>
				<path id="XMLID_502_" class="st12" d="M200.7,195.8l2.2-1.2v-10l-6.5,3.7v15l2.2-1.2v-5l3.2,3.1l2.2-1.2L200.7,195.8z
					 M198.6,189.6l2.2-1.3v5l-2.2,1.2V189.6z"/>
				<polygon id="XMLID_457_" class="st12" points="192.3,185.6 191.6,188.8 189.3,190.1 190.1,186.9 				"/>
				<polygon id="XMLID_456_" class="st12" points="194.3,189.6 194.3,204.6 186.7,208.9 186.7,193.9 188.8,192.7 188.8,205.2 
					192.1,203.3 192.1,190.8 				"/>
			</g>
		</g>
		<polygon id="XMLID_312_" class="st13" points="180.2,188.6 180.2,244.6 175,241.6 175,185.6 		"/>
		<polygon id="XMLID_305_" class="st4" points="269,301.9 269,305.8 265.6,307.7 262.3,309.6 218.6,334.9 215.3,336.8 215.3,332.9 
					"/>
		<g id="XMLID_430_">
			<polygon id="XMLID_357_" class="st5" points="265.6,307.7 265.6,365.8 262.3,363.9 262.3,309.6 			"/>
			<polygon id="XMLID_250_" class="st5" points="215.3,336.8 215.3,394.9 211.9,393 211.9,334.9 			"/>
			<polygon id="XMLID_306_" class="st5" points="215.3,332.9 215.3,336.8 201.9,329 201.9,325.1 			"/>
		</g>
		<polygon id="XMLID_277_" class="st4" points="269,301.9 215.3,332.9 201.9,325.1 255.6,294.1 		"/>
		<line id="XMLID_275_" class="st3" x1="219.9" y1="283.7" x2="219.9" y2="283.7"/>
		<polygon id="XMLID_260_" class="st14" points="240.1,334.1 240.1,362.7 228.7,369.3 228.7,340.6 		"/>
		<polygon id="XMLID_257_" class="st15" points="242.1,332.9 242.1,363.9 240.1,362.7 240.1,334.1 		"/>
		<polygon id="XMLID_252_" class="st16" points="242.1,363.9 228.7,371.7 228.7,369.3 240.1,362.7 		"/>
		<line id="XMLID_325_" class="st3" x1="329.4" y1="313.5" x2="329.4" y2="313.5"/>
		<polygon id="XMLID_380_" class="st3" points="329.4,290.3 329.4,290.3 327.3,291.5 		"/>
		<line id="XMLID_318_" class="st3" x1="329.4" y1="274.8" x2="329.4" y2="274.8"/>
		<polygon id="XMLID_372_" class="st3" points="329.4,251.5 329.4,251.5 327.3,252.7 327.3,252.7 		"/>
		<polyline id="XMLID_280_" class="st3" points="329.4,236 329.4,236 329.4,236 		"/>
		<polygon id="XMLID_369_" class="st3" points="329.4,212.7 329.4,212.8 327.3,213.9 		"/>
		<polygon id="XMLID_390_" class="st3" points="327.3,234.8 329.4,236 329.4,236 		"/>
		<line id="XMLID_317_" class="st3" x1="329.4" y1="197.2" x2="329.4" y2="197.2"/>
		<g id="XMLID_261_">
			<polygon id="XMLID_407_" class="st17" points="154.9,414.3 141.4,422 141.4,419.7 152.8,413.1 			"/>
			<polygon id="XMLID_404_" class="st17" points="154.9,375.5 141.4,383.3 141.4,380.9 152.8,374.4 			"/>
			<polygon id="XMLID_400_" class="st17" points="154.9,336.8 141.4,344.5 141.4,342.1 152.8,335.6 			"/>
			<polygon id="XMLID_351_" class="st17" points="154.9,298 141.4,305.8 141.4,303.4 152.8,296.8 			"/>
			<polygon id="XMLID_382_" class="st17" points="329.4,313.5 329.4,313.5 316,321.3 316,318.9 327.3,312.4 			"/>
			<polygon id="XMLID_379_" class="st17" points="329.4,274.8 329.4,274.8 316,282.5 316,280.1 327.3,273.6 			"/>
			<polygon id="XMLID_338_" class="st17" points="329.4,236 316,243.8 316,241.4 327.3,234.8 			"/>
			<polygon id="XMLID_393_" class="st17" points="329.4,197.2 329.4,197.2 316,205 316,202.6 327.3,196.1 			"/>
		</g>
		<g id="XMLID_262_">
			<polygon id="XMLID_409_" class="st18" points="154.9,391 154.9,414.3 152.8,413.1 152.8,392.2 			"/>
			<polygon id="XMLID_406_" class="st18" points="154.9,352.3 154.9,375.5 152.8,374.4 152.8,353.5 			"/>
			<polygon id="XMLID_401_" class="st18" points="154.9,313.5 154.9,336.8 152.8,335.6 152.8,314.7 			"/>
			<polygon id="XMLID_352_" class="st18" points="154.9,274.8 154.9,298 152.8,296.8 152.8,276 			"/>
			<polygon id="XMLID_387_" class="st18" points="329.4,290.3 329.4,313.5 327.3,312.4 327.3,291.5 			"/>
			<polygon id="XMLID_388_" class="st18" points="329.4,251.5 329.4,274.8 327.3,273.6 327.3,252.7 			"/>
			<polygon id="XMLID_391_" class="st18" points="329.4,212.8 329.4,236 327.3,234.8 327.3,213.9 			"/>
			<polygon id="XMLID_394_" class="st18" points="329.4,174 329.4,197.2 327.3,196.1 327.3,175.2 			"/>
		</g>
		<polygon id="XMLID_366_" class="st3" points="329.4,174 329.4,174 327.3,175.2 		"/>
		<line id="XMLID_416_" class="st3" x1="219.9" y1="236.6" x2="219.9" y2="236.6"/>
		<g id="XMLID_256_">
			<polygon id="XMLID_433_" class="st19" points="199.8,295.3 199.8,308.5 188.4,315 188.4,301.9 			"/>
			<polygon id="XMLID_364_" class="st19" points="219.9,283.7 219.9,296.8 208.6,303.4 208.6,290.3 			"/>
			<polygon id="XMLID_426_" class="st19" points="240.1,272.1 240.1,285.2 228.7,291.7 228.7,278.6 			"/>
			<polygon id="XMLID_415_" class="st19" points="260.9,259.9 260.9,273 249.5,279.5 249.5,266.4 			"/>
			<polygon id="XMLID_297_" class="st19" points="152.8,392.2 152.8,413.1 141.4,419.7 141.4,398.8 			"/>
			<polygon id="XMLID_396_" class="st19" points="152.8,353.5 152.8,374.4 141.4,380.9 141.4,360 			"/>
			<polygon id="XMLID_332_" class="st19" points="152.8,314.7 152.8,335.6 141.4,342.1 141.4,321.3 			"/>
			<polygon id="XMLID_348_" class="st19" points="152.8,276 152.8,296.8 141.4,303.4 141.4,282.5 			"/>
			<polygon id="XMLID_373_" class="st19" points="327.3,291.5 327.3,312.4 316,318.9 316,298 			"/>
			<polygon id="XMLID_376_" class="st19" points="327.3,252.7 327.3,273.6 316,280.1 316,259.2 			"/>
			<polygon id="XMLID_363_" class="st19" points="327.3,213.9 327.3,234.8 316,241.4 316,220.5 			"/>
			<polygon id="XMLID_360_" class="st19" points="327.3,175.2 327.3,196.1 316,202.6 316,181.7 			"/>
			<polygon id="XMLID_428_" class="st19" points="199.8,272.1 199.8,285.2 188.4,291.7 188.4,278.6 			"/>
			<polygon id="XMLID_826_" class="st19" points="219.9,260.5 219.9,273.6 208.6,280.1 208.6,267 			"/>
			<polygon id="XMLID_377_" class="st19" points="240.1,248.8 240.1,262 228.7,268.5 228.7,255.4 			"/>
			<polygon id="XMLID_421_" class="st19" points="260.9,236.6 260.9,249.7 249.5,256.3 249.5,243.2 			"/>
			<polygon id="XMLID_823_" class="st19" points="199.8,248.2 199.8,261.4 188.4,267.9 188.4,254.8 			"/>
			<polygon id="XMLID_837_" class="st19" points="219.9,236.6 219.9,249.7 208.6,256.3 208.6,243.2 			"/>
			<polygon id="XMLID_828_" class="st19" points="240.1,225 240.1,238.1 228.7,244.6 228.7,231.5 			"/>
			<polygon id="XMLID_470_" class="st19" points="260.9,212.8 260.9,225.9 249.5,232.4 249.5,219.3 			"/>
		</g>
		<g id="XMLID_63_">
			<polygon id="XMLID_381_" class="st20" points="201.9,309.6 188.4,317.4 188.4,315 199.8,308.5 			"/>
			<polygon id="XMLID_361_" class="st20" points="222,298 208.6,305.8 208.6,303.4 219.9,296.8 			"/>
			<polygon id="XMLID_375_" class="st20" points="242.1,286.4 228.7,294.1 228.7,291.7 240.1,285.2 			"/>
			<polygon id="XMLID_367_" class="st20" points="263,274.2 249.5,281.9 249.5,279.5 260.9,273 			"/>
			<polygon id="XMLID_427_" class="st20" points="201.9,286.4 188.4,294.1 188.4,291.7 199.8,285.2 			"/>
			<polygon id="XMLID_825_" class="st20" points="222,274.8 208.6,282.5 208.6,280.1 219.9,273.6 			"/>
			<polygon id="XMLID_365_" class="st20" points="242.1,263.1 228.7,270.9 228.7,268.5 240.1,262 			"/>
			<polygon id="XMLID_419_" class="st20" points="263,250.9 249.5,258.7 249.5,256.3 260.9,249.7 			"/>
			<polygon id="XMLID_830_" class="st20" points="201.9,262.5 188.4,270.3 188.4,267.9 199.8,261.4 			"/>
			<polygon id="XMLID_842_" class="st20" points="222,250.9 208.6,258.7 208.6,256.3 219.9,249.7 			"/>
			<polygon id="XMLID_829_" class="st20" points="242.1,239.3 228.7,247 228.7,244.6 240.1,238.1 			"/>
			<polygon id="XMLID_814_" class="st20" points="263,227.1 249.5,234.8 249.5,232.4 260.9,225.9 			"/>
		</g>
		<g id="XMLID_251_">
			<polygon id="XMLID_429_" class="st21" points="201.9,294.1 201.9,309.6 199.8,308.5 199.8,295.3 			"/>
			<polygon id="XMLID_362_" class="st21" points="222,282.5 222,298 219.9,296.8 219.9,283.7 			"/>
			<polygon id="XMLID_425_" class="st21" points="242.1,270.9 242.1,286.4 240.1,285.2 240.1,272.1 			"/>
			<polygon id="XMLID_383_" class="st21" points="263,258.7 263,274.2 260.9,273 260.9,259.9 			"/>
			<polygon id="XMLID_378_" class="st21" points="201.9,270.9 201.9,286.4 199.8,285.2 199.8,272.1 			"/>
			<polygon id="XMLID_824_" class="st21" points="222,259.3 222,274.8 219.9,273.6 219.9,260.5 			"/>
			<polygon id="XMLID_370_" class="st21" points="242.1,247.6 242.1,263.1 240.1,262 240.1,248.8 			"/>
			<polygon id="XMLID_374_" class="st21" points="263,235.4 263,250.9 260.9,249.7 260.9,236.6 			"/>
			<polygon id="XMLID_820_" class="st21" points="201.9,247 201.9,262.5 199.8,261.4 199.8,248.2 			"/>
			<polygon id="XMLID_835_" class="st21" points="222,235.4 222,250.9 219.9,249.7 219.9,236.6 			"/>
			<polygon id="XMLID_822_" class="st21" points="242.1,223.8 242.1,239.3 240.1,238.1 240.1,225 			"/>
			<polygon id="XMLID_459_" class="st21" points="263,211.6 263,227.1 260.9,225.9 260.9,212.8 			"/>
		</g>
		<polygon id="XMLID_350_" class="st22" points="89.4,384.2 89.4,397.3 100.8,403.9 100.8,390.8 		"/>
		<polygon id="XMLID_266_" class="st22" points="69.3,372.6 69.3,385.7 80.6,392.2 80.6,379.1 		"/>
		<polygon id="XMLID_269_" class="st22" points="42.8,357.3 42.8,370.5 54.2,377 54.2,363.9 		"/>
		<polygon id="XMLID_273_" class="st22" points="22.7,345.7 22.7,358.8 34,365.4 34,352.3 		"/>
		<polygon id="XMLID_299_" class="st22" points="89.4,353.3 89.4,366.5 100.7,373 100.7,359.9 		"/>
		<polygon id="XMLID_294_" class="st22" points="69.2,341.7 69.2,354.8 80.6,361.3 80.6,348.2 		"/>
		<polygon id="XMLID_283_" class="st22" points="42.8,326.4 42.8,339.6 54.2,346.1 54.2,333 		"/>
		<polygon id="XMLID_278_" class="st22" points="22.7,314.8 22.7,327.9 34,334.5 34,321.4 		"/>
		<polygon id="XMLID_322_" class="st22" points="89.4,322.3 89.4,335.5 100.8,342 100.8,328.9 		"/>
		<polygon id="XMLID_319_" class="st22" points="69.3,310.7 69.3,323.8 80.6,330.3 80.6,317.2 		"/>
		<polygon id="XMLID_314_" class="st22" points="42.8,295.4 42.8,308.6 54.2,315.1 54.2,302 		"/>
		<polygon id="XMLID_307_" class="st22" points="22.7,283.8 22.7,296.9 34.1,303.5 34.1,290.4 		"/>
		<polygon id="XMLID_353_" class="st22" points="89.4,290.7 89.4,303.9 100.8,310.4 100.8,297.3 		"/>
		<polygon id="XMLID_334_" class="st22" points="69.3,279.1 69.3,292.2 80.6,298.7 80.6,285.6 		"/>
		<polygon id="XMLID_330_" class="st22" points="42.8,263.8 42.8,277 54.2,283.5 54.2,270.4 		"/>
		<polygon id="XMLID_327_" class="st22" points="22.7,252.2 22.7,265.3 34.1,271.9 34.1,258.8 		"/>
		<polygon id="XMLID_414_" class="st22" points="89.4,260.3 89.4,273.4 100.8,280 100.8,266.9 		"/>
		<polygon id="XMLID_398_" class="st22" points="69.3,248.7 69.3,261.8 80.6,268.3 80.6,255.2 		"/>
		<polygon id="XMLID_392_" class="st22" points="42.8,233.4 42.8,246.6 54.2,253.1 54.2,240 		"/>
		<polygon id="XMLID_358_" class="st22" points="22.7,221.8 22.7,234.9 34.1,241.5 34.1,228.3 		"/>
		<g id="XMLID_417_">
			<polygon id="XMLID_309_" class="st23" points="87.3,398.5 100.7,406.3 100.7,403.9 89.4,397.4 			"/>
			<polygon id="XMLID_264_" class="st23" points="67.2,386.9 80.6,394.7 80.6,392.3 69.2,385.7 			"/>
			<polygon id="XMLID_268_" class="st23" points="40.7,371.7 54.2,379.4 54.2,377 42.8,370.5 			"/>
			<polygon id="XMLID_271_" class="st23" points="20.6,360 34,367.8 34,365.4 22.7,358.9 			"/>
			<polygon id="XMLID_298_" class="st23" points="87.3,367.7 100.7,375.4 100.7,373 89.4,366.5 			"/>
			<polygon id="XMLID_291_" class="st23" points="67.1,356 80.6,363.8 80.6,361.4 69.2,354.9 			"/>
			<polygon id="XMLID_282_" class="st23" points="40.7,340.8 54.2,348.5 54.2,346.1 42.8,339.6 			"/>
			<polygon id="XMLID_276_" class="st23" points="20.6,329.1 34,336.9 34,334.5 22.7,328 			"/>
			<polygon id="XMLID_321_" class="st23" points="87.3,336.7 100.8,344.4 100.8,342 89.4,335.5 			"/>
			<polygon id="XMLID_316_" class="st23" points="67.2,325 80.6,332.8 80.6,330.4 69.3,323.9 			"/>
			<polygon id="XMLID_313_" class="st23" points="40.7,309.8 54.2,317.5 54.2,315.1 42.8,308.6 			"/>
			<polygon id="XMLID_304_" class="st23" points="20.6,298.1 34,305.9 34,303.5 22.7,297 			"/>
			<polygon id="XMLID_349_" class="st23" points="87.3,305.1 100.8,312.8 100.8,310.4 89.4,303.9 			"/>
			<polygon id="XMLID_333_" class="st23" points="67.2,293.4 80.6,301.2 80.6,298.8 69.3,292.3 			"/>
			<polygon id="XMLID_329_" class="st23" points="40.7,278.2 54.2,285.9 54.2,283.5 42.8,277 			"/>
			<polygon id="XMLID_326_" class="st23" points="20.6,266.5 34,274.3 34,271.9 22.7,265.4 			"/>
			<polygon id="XMLID_413_" class="st23" points="87.3,274.6 100.8,282.4 100.8,280 89.4,273.5 			"/>
			<polygon id="XMLID_397_" class="st23" points="67.2,263 80.6,270.8 80.6,268.4 69.3,261.8 			"/>
			<polygon id="XMLID_389_" class="st23" points="40.7,247.8 54.2,255.5 54.2,253.1 42.8,246.6 			"/>
			<polygon id="XMLID_356_" class="st23" points="20.6,236.1 34,243.9 34,241.5 22.7,235 			"/>
		</g>
		<g id="XMLID_254_">
			<polygon id="XMLID_279_" class="st7" points="87.3,383 87.3,398.5 89.4,397.4 89.4,384.2 			"/>
			<polygon id="XMLID_263_" class="st7" points="67.2,371.4 67.2,386.9 69.2,385.7 69.2,372.6 			"/>
			<polygon id="XMLID_267_" class="st7" points="40.7,356.2 40.7,371.7 42.8,370.5 42.8,357.4 			"/>
			<polygon id="XMLID_270_" class="st7" points="20.6,344.5 20.6,360 22.7,358.9 22.7,345.7 			"/>
			<polygon id="XMLID_296_" class="st7" points="87.3,352.2 87.3,367.7 89.4,366.5 89.4,353.4 			"/>
			<polygon id="XMLID_284_" class="st7" points="67.1,340.5 67.1,356 69.2,354.9 69.2,341.7 			"/>
			<polygon id="XMLID_281_" class="st7" points="40.7,325.3 40.7,340.8 42.8,339.6 42.8,326.5 			"/>
			<polygon id="XMLID_274_" class="st7" points="20.6,313.6 20.6,329.1 22.7,328 22.7,314.8 			"/>
			<polygon id="XMLID_320_" class="st7" points="87.3,321.2 87.3,336.7 89.4,335.5 89.4,322.4 			"/>
			<polygon id="XMLID_315_" class="st7" points="67.2,309.5 67.2,325 69.3,323.9 69.3,310.7 			"/>
			<polygon id="XMLID_311_" class="st7" points="40.7,294.3 40.7,309.8 42.8,308.6 42.8,295.5 			"/>
			<polygon id="XMLID_301_" class="st7" points="20.6,282.6 20.6,298.1 22.7,297 22.7,283.8 			"/>
			<polygon id="XMLID_335_" class="st7" points="87.3,289.6 87.3,305.1 89.4,303.9 89.4,290.8 			"/>
			<polygon id="XMLID_331_" class="st7" points="67.2,277.9 67.2,293.4 69.3,292.3 69.3,279.1 			"/>
			<polygon id="XMLID_328_" class="st7" points="40.7,262.7 40.7,278.2 42.8,277 42.8,263.9 			"/>
			<polygon id="XMLID_324_" class="st7" points="20.6,251 20.6,266.5 22.7,265.4 22.7,252.2 			"/>
			<polygon id="XMLID_410_" class="st7" points="87.3,259.1 87.3,274.6 89.4,273.5 89.4,260.3 			"/>
			<polygon id="XMLID_395_" class="st7" points="67.2,247.5 67.2,263 69.3,261.8 69.3,248.7 			"/>
			<polygon id="XMLID_359_" class="st7" points="40.7,232.3 40.7,247.8 42.8,246.6 42.8,233.5 			"/>
			<polygon id="XMLID_355_" class="st7" points="20.6,220.6 20.6,236.1 22.7,235 22.7,221.8 			"/>
		</g>
		<polygon id="XMLID_418_" class="st24" points="195.1,77.1 195.1,96.5 168.3,112 168.3,92.1 		"/>
		<path id="XMLID_259_" class="st3" d="M195.1,96.5"/>
		<path id="XMLID_258_" class="st3" d="M141.4,96.5"/>
		<polygon id="XMLID_399_" class="st5" points="168.3,92.1 168.3,112 141.4,96.5 141.4,76.6 145.2,78.8 		"/>
		<polygon id="XMLID_438_" class="st9" points="168.3,61.6 168.3,92.1 145.2,78.8 141.4,76.6 		"/>
		<line id="XMLID_310_" class="st25" x1="329.4" y1="197.2" x2="329.4" y2="197.2"/>
		<line id="XMLID_303_" class="st25" x1="329.4" y1="236" x2="329.4" y2="236"/>
		<line id="XMLID_302_" class="st25" x1="329.4" y1="274.8" x2="329.4" y2="274.8"/>
		<line id="XMLID_295_" class="st25" x1="329.4" y1="313.5" x2="329.4" y2="313.5"/>
	</g>
</g>
<g id="Layer_1_copy">
	<path id="XMLID_647_" class="st26" d="M162.4,161.4v49.5l13.4,8.3v-49.5l94-57.8l5.2,3.2v59.7l-94,57.8l-5.2-3.2v171.6l13.4-8.3
		l23.5-14.5l3.3-2.1v-45.4l-13.4-8.3v-4.1l53.7-33l13.4,8.3v49.5l13.4-8.3V87.1L162.4,161.4z M202.7,301.8l-13.4,8.3v-16.5l11.4-7
		l2.1-1.3V301.8z M202.7,277l-13.4,8.3v-16.5l11.4-7l2.1-1.3V277z M202.7,251.6l-13.4,8.3v-16.5l11.4-7l2.1-1.3V251.6z M222.8,289.4
		l-13.4,8.3v-16.5l11.4-7l2.1-1.3V289.4z M222.8,264.6l-13.4,8.3v-16.5l11.4-7l2.1-1.3V264.6z M222.8,239.2l-13.4,8.3V231l11.4-7
		l2.1-1.3V239.2z M242.9,277l-13.4,8.3v-16.5l11.4-7l2.1-1.3V277z M242.9,252.2l-13.4,8.3V244l11.4-7l2.1-1.3V252.2z M242.9,226.8
		l-13.4,8.3v-16.5l11.4-7l2.1-1.3V226.8z M263.8,264l-13.4,8.3v-16.5l11.4-7l2.1-1.3V264z M263.8,239.2l-13.4,8.2V231l11.4-7
		l2.1-1.3V239.2z M263.8,213.8l-13.4,8.3v-16.5l11.4-7l2.1-1.3V213.8z"/>
	<polygon id="XMLID_646_" class="st26" points="263.1,301.8 263.1,347.2 242.9,359.6 242.9,326.6 229.5,334.8 229.5,367.9 
		219.4,374.1 219.4,328.7 	"/>
	<line id="XMLID_645_" class="st3" x1="242.9" y1="359.6" x2="229.5" y2="367.9"/>
	<polygon id="XMLID_644_" class="st27" points="283.2,87.1 162.4,161.4 55,95.3 81.8,78.8 81.8,95.3 162.4,144.9 256.4,87.1 
		256.4,70.5 	"/>
	<polygon id="XMLID_643_" class="st28" points="162.4,161.4 162.4,210.9 55,144.9 55,95.3 	"/>
	<polygon id="XMLID_642_" class="st27" points="175.8,219.2 122.1,252.2 1.3,177.9 55,144.9 162.4,210.9 	"/>
	<path id="XMLID_635_" class="st29" d="M122.1,252.2l0,181.7l0,16.5l53.7-33V219.2L122.1,252.2z M155.7,413.3l-13.4,8.3v-24.8
		l11.4-7l2.1-1.3V413.3z M155.7,372l-13.4,8.3v-24.8l11.4-7l2.1-1.3V372z M155.7,330.7l-13.4,8.3v-24.8l11.4-7l2.1-1.3V330.7z
		 M155.7,289.4l-13.4,8.3v-24.8l11.4-7l2.1-1.3V289.4z"/>
	<path id="XMLID_612_" class="st28" d="M122.1,252.2L1.3,177.9v198.2l120.8,74.3l0-16.5L122.1,252.2z M34.8,363.7l-13.4-8.3V339
		l2.1,1.3l11.4,7V363.7z M34.8,330.8l-13.4-8.3v-16.5l2.1,1.3l11.4,7V330.8z M34.8,297.8l-13.4-8.3V273l2.1,1.3v0l11.4,7V297.8z
		 M34.8,264.1l-13.4-8.3v-16.5l2.1,1.3l11.4,7V264.1z M34.8,231.7l-13.4-8.3v-16.5l2.1,1.3l11.4,7V231.7z M55,376.1l-13.4-8.3v-16.5
		l2.1,1.3l11.4,7V376.1z M55,343.2L41.6,335v-16.5l2.1,1.3l11.4,7V343.2z M55,310.2l-13.4-8.3v-16.5l2.1,1.3l11.4,7V310.2z
		 M55,276.5l-13.4-8.3v-16.5l2.1,1.3l11.4,7V276.5z M55,244.1l-13.4-8.3v-16.5l2.1,1.3l11.4,7V244.1z M81.4,392.4L68,384.1v-16.5
		l2.1,1.3l11.4,7V392.4z M81.4,359.5L68,351.2v-16.5l2.1,1.3l11.4,7V359.5z M81.4,326.4L68,318.2v-16.5l2.1,1.3l11.4,7V326.4z
		 M81.4,292.8L68,284.5V268l2.1,1.3l11.4,7V292.8z M81.4,260.4L68,252.1v-16.5l2.1,1.3l11.4,7V260.4z M101.6,404.8l-13.4-8.3V380
		l2.1,1.3l11.4,7V404.8z M101.6,371.9l-13.4-8.3v-16.5l2.1,1.3l11.4,7V371.9z M101.6,338.8l-13.4-8.3V314l2.1,1.3l11.4,7V338.8z
		 M101.6,305.1l-13.4-8.2v-16.5l2.1,1.3l11.4,7V305.1z M101.6,272.7l-13.4-8.2V248l2.1,1.3l11.4,7V272.7z"/>
	<polygon id="XMLID_611_" class="st27" points="350.3,111.8 296.6,144.9 283.2,136.6 283.2,87.1 256.4,70.5 216.1,45.8 229.5,37.5 	
		"/>
	<polygon id="XMLID_610_" class="st28" points="296.6,144.9 296.6,343.1 283.2,334.8 283.2,136.6 	"/>
	<path id="XMLID_603_" class="st29" d="M296.6,144.9v198.2l53.7-33V111.8L296.6,144.9z M330.2,305.9L330.2,305.9l-13.4,8.3v-24.8
		l11.4-7l2.1-1.3v0h0V305.9z M330.2,264.6L330.2,264.6l-13.4,8.3v-24.8l11.4-7l2.1-1.3v0h0V264.6z M330.2,223.3l-13.4,8.2v-24.8
		l11.4-7l2.1-1.3v0h0V223.3z M330.2,182L330.2,182l-13.4,8.3v-24.8l11.4-7l2.1-1.3v0h0V182z"/>
	<path id="XMLID_599_" class="st27" d="M216.1,45.8L175.8,21l-94,57.8l13.4,8.3l67.1,41.3l80.6-49.5l13.4-8.3L216.1,45.8z M196,74.7
		l-26.9,16.5l-26.8-16.5V53.5l26.8-16l3.4,2.1L196,54V74.7z"/>
	<polygon id="XMLID_598_" class="st30" points="196,54 169.1,70 169.1,37.5 172.5,39.6 	"/>
	<polygon id="XMLID_597_" class="st28" points="162.4,128.4 162.4,144.9 81.8,95.3 81.8,78.8 95.3,87.1 	"/>
	<polygon id="XMLID_596_" class="st31" points="256.4,87.1 162.4,144.9 162.4,128.4 242.9,78.8 256.4,70.5 	"/>
	<path id="XMLID_595_" class="st3" d="M229.5,334.8"/>
	<path id="XMLID_594_" class="st3" d="M229.5,392.6"/>
	<path id="XMLID_593_" class="st3" d="M269.8,310"/>
	<path id="XMLID_592_" class="st3" d="M229.5,334.8"/>
	<polygon id="XMLID_591_" class="st26" points="219.4,328.7 219.4,390.6 216.1,392.6 216.1,330.7 	"/>
	<polyline id="XMLID_590_" class="st3" points="212.8,329 212.8,378.2 212.8,390.6 216.1,392.6 	"/>
	<polygon id="XMLID_589_" class="st26" points="269.8,297.7 269.8,359.6 266.4,361.7 266.4,299.7 	"/>
	<polygon id="XMLID_588_" class="st10" points="275,115.1 181,172.9 175.8,169.7 269.8,111.8 	"/>
	<g id="XMLID_554_">
		<path id="XMLID_565_" class="st11" d="M181,172.9v59.7l94-57.8v-59.7L181,172.9z M249,135.6l2.2-1.4l-0.7,3.4l-2.2,1.4L249,135.6z
			 M215.6,161.2l2.2-1.3l3.2-2l1.1,0.7l1.1,0.7l0,11.3l-0.5,1.3l-0.6,1.3l-1.1,0.7l-5.4,3.3V161.2z M205.9,167.2l6.5-4v16l-2.2,1.3
			v-6.6l-2.2,1.3v6.7l-2.2,1.3V167.2z M190.9,171l2.2-1.4l-0.7,3.4l-2.2,1.4L190.9,171z M195.1,189.8l-7.6,4.7v-16l2.2-1.3v13.3
			l3.2-2v-13.3l2.2-1.3V189.8z M202.7,203.6l-2.2,1.4l-2.2,1.4v5.5l-2.2,1.4v-16.6l6.7-4.1V203.6z M202.6,185.2l-3.2-3.3v5.3
			l-2.2,1.3v-16l6.5-4v10.6l-2.2,1.3l3.2,3.3L202.6,185.2z M210.5,204.3l-3.4-3.5v5.5l-2.2,1.4v-16.6l6.7-4.1v11l-2.2,1.4l3.4,3.5
			L210.5,204.3z M216.2,200.9l-2.2,1.4v-16.6l2.2-1.4V200.9z M224,182.2l-3.4,2.1l0,4.2l3.3-2.1v2.8c0,0-3.3,2-3.3,2l0,4.1l3.3-2.1
			v2.8l-3.4,2.2l-2.2,1.4v-16.6l5.6-3.5V182.2z M231.9,191.2l-4.5,2.8l-1.7-15.5l2.2-1.4l1.7,12.8l1.7-14.8l2.2-1.4L231.9,191.2z
			 M231.8,161.9v5.3l-2.2,1.3v-16l6.5-4v10.6l-2.2,1.3L231.8,161.9z M237.5,187.8l-2.2,1.4v-16.6l2.2-1.4V187.8z M238.3,147.3l6.5-4
			v10.6l-2.2,1.3l3.2,3.3l-2.2,1.3l-3.2-3.3v5.3l-2.2,1.3V147.3z M247.6,179.5l-0.5,1.4l-0.6,1.4l-1.1,0.7l-5.6,3.5v-16.6l2.2-1.4
			l3.4-2.1l1.1,0.7l1.1,0.7V179.5z M249.1,156.6l-2.2,1.3v-16l6.5-4v16l-2.2,1.3v-6.7l-2.2,1.3V156.6z M256.4,162.2l-4.5,13.8
			l4.5-2.8v2.8l-6.7,4.1v-2.8l4.5-13.8l-4.5,2.8v-2.8l6.7-4.1V162.2z M255.6,152.6v-16l5.4-3.3v2.7l-3.2,2l0.1,10.6l3.2-2v2.7
			l-3.2,2.1L255.6,152.6z M265.3,170.5l-2.2,1.4V165l-2.2,1.4v6.9l-2.2,1.4v-16.6l6.7-4.1V170.5z M268.6,131.3l-3.2,2l0,4l3.2-2v2.7
			c0,0-3.2,1.9-3.2,2l0,3.9l3.2-2v2.7l-3.2,2.1l-2.2,1.3l0-16l5.4-3.3V131.3z"/>
		<polygon id="XMLID_564_" class="st11" points="263.1,158.1 263.1,162.2 260.8,163.6 260.8,159.4 		"/>
		<polygon id="XMLID_563_" class="st11" points="245.3,169.1 245.3,180.2 242,182.2 242,171.2 		"/>
		<polygon id="XMLID_562_" class="st11" points="209.4,191.2 209.4,196.7 207.2,198.1 207.2,192.6 		"/>
		<polygon id="XMLID_561_" class="st11" points="200.4,196.7 200.4,202.3 198.2,203.6 198.2,198.1 		"/>
		<polygon id="XMLID_560_" class="st11" points="251.3,141.9 251.3,145.9 249.1,147.3 249.1,143.3 		"/>
		<polygon id="XMLID_559_" class="st11" points="242.6,147.3 242.6,152.6 240.5,153.9 240.5,148.6 		"/>
		<polygon id="XMLID_558_" class="st11" points="234,152.6 234,157.9 231.8,159.2 231.8,153.9 		"/>
		<polygon id="XMLID_557_" class="st11" points="221,160.6 221,171.2 217.8,173.2 217.8,162.6 		"/>
		<polygon id="XMLID_556_" class="st11" points="210.2,167.2 210.2,171.2 208,172.5 208,168.5 		"/>
		<polygon id="XMLID_555_" class="st11" points="201.6,172.5 201.6,177.9 199.4,179.2 199.4,173.9 		"/>
	</g>
	<g id="XMLID_466_">
		<polygon id="XMLID_553_" class="st12" points="251.3,134.2 250.5,137.6 248.3,139 249,135.6 		"/>
		<g id="XMLID_468_">
			<path id="XMLID_549_" class="st12" d="M258.6,158.1v16.6l2.2-1.4v-6.9l2.2-1.4v6.9l2.2-1.4v-16.6L258.6,158.1z M263.1,162.2
				l-2.2,1.4v-4.1l2.2-1.4V162.2z"/>
			<polygon id="XMLID_548_" class="st12" points="256.4,162.2 251.9,176 256.4,173.3 256.4,176 249.7,180.2 249.7,177.4 
				254.1,163.6 249.7,166.4 249.7,163.6 256.4,159.5 			"/>
			<path id="XMLID_544_" class="st12" d="M246.5,167l-1.1-0.7l-3.4,2.1l-2.2,1.4v16.6l5.6-3.5l1.1-0.7l0.6-1.4l0.5-1.4v-11.7
				L246.5,167z M245.3,180.2l-3.4,2.1v-11l3.4-2.1V180.2z"/>
			<polygon id="XMLID_543_" class="st12" points="237.5,171.2 237.5,187.8 235.2,189.1 235.2,172.6 			"/>
			<polygon id="XMLID_542_" class="st12" points="233.6,173.6 231.9,191.2 227.4,194 225.7,178.4 227.9,177.1 229.6,189.8 
				231.3,175 			"/>
			<path id="XMLID_541_" class="st12" d="M224,182.2l-3.4,2.1l0,4.2l3.3-2.1v2.8c0,0-3.3,2-3.3,2l0,4.1l3.3-2.1v2.8l-3.4,2.2
				l-2.2,1.4v-16.6l5.6-3.5V182.2z"/>
			<polygon id="XMLID_540_" class="st12" points="216.2,184.3 216.2,200.9 213.9,202.3 213.9,185.7 			"/>
			<path id="XMLID_536_" class="st12" d="M209.4,199.5l2.2-1.4v-11l-6.7,4.1v16.6l2.2-1.4v-5.5l3.4,3.5l2.2-1.4L209.4,199.5z
				 M207.2,192.6l2.2-1.4v5.5l-2.2,1.4V192.6z"/>
			<path id="XMLID_532_" class="st12" d="M196,196.7v16.6l2.2-1.4v-5.5l2.2-1.4l2.2-1.4v-11L196,196.7z M200.4,202.3l-2.2,1.4v-5.5
				l2.2-1.4V202.3z"/>
			<path id="XMLID_531_" class="st12" d="M268.6,131.3l-3.2,2l0,4l3.2-2v2.7c0,0-3.2,1.9-3.2,2l0,3.9l3.2-2v2.7l-3.2,2.1l-2.2,1.3
				l0-16l5.4-3.3V131.3z"/>
			<polygon id="XMLID_530_" class="st12" points="261,136 257.8,138 257.9,148.5 261,146.5 261,149.2 257.8,151.3 255.6,152.6 
				255.6,136.6 261,133.3 			"/>
			<path id="XMLID_526_" class="st12" d="M247,141.9v16l2.2-1.3v-6.6l2.2-1.3v6.7l2.2-1.3v-16L247,141.9z M251.3,145.9l-2.2,1.3v-4
				l2.2-1.3V145.9z"/>
			<path id="XMLID_510_" class="st12" d="M242.6,155.2l2.2-1.3v-10.6l-6.5,4v16l2.2-1.3v-5.3l3.2,3.3l2.2-1.3L242.6,155.2z
				 M240.5,148.6l2.2-1.3v5.3l-2.2,1.3V148.6z"/>
			<path id="XMLID_498_" class="st12" d="M229.7,152.6v16l2.2-1.3v-5.3l2.2-1.3l2.2-1.3v-10.6L229.7,152.6z M234,157.9l-2.2,1.3
				v-5.3l2.2-1.3V157.9z"/>
			<path id="XMLID_494_" class="st12" d="M222.1,158.6l-1.1-0.7l-3.2,2l-2.2,1.3v16l5.4-3.3l1.1-0.7l0.6-1.3l0.5-1.3l0-11.3
				L222.1,158.6z M221,171.2l-3.2,2v-10.6l3.2-2V171.2z"/>
			<path id="XMLID_490_" class="st12" d="M205.9,167.2v16l2.2-1.3v-6.7l2.2-1.3v6.6l2.2-1.3v-16L205.9,167.2z M210.2,171.2l-2.2,1.3
				v-4l2.2-1.3V171.2z"/>
			<path id="XMLID_474_" class="st12" d="M201.6,180.5l2.2-1.3v-10.6l-6.5,4v16l2.2-1.3v-5.3l3.2,3.3l2.2-1.3L201.6,180.5z
				 M199.4,173.9l2.2-1.3v5.3l-2.2,1.3V173.9z"/>
			<polygon id="XMLID_472_" class="st12" points="193.1,169.7 192.4,173 190.2,174.4 190.9,171 			"/>
			<polygon id="XMLID_469_" class="st12" points="195.1,173.9 195.1,189.8 187.5,194.5 187.5,178.5 189.7,177.2 189.7,190.5 
				192.9,188.5 192.9,175.2 			"/>
		</g>
	</g>
	<polygon id="XMLID_464_" class="st13" points="181,172.9 181,232.5 175.8,229.3 175.8,169.7 	"/>
	<polygon id="XMLID_462_" class="st26" points="269.8,293.5 269.8,297.7 266.4,299.7 263.1,301.8 219.4,328.7 216.1,330.7 
		216.1,326.6 	"/>
	<g id="XMLID_431_">
		<polygon id="XMLID_461_" class="st28" points="266.4,299.7 266.4,361.7 263.1,359.6 263.1,301.8 		"/>
		<polygon id="XMLID_460_" class="st28" points="216.1,330.7 216.1,392.6 212.7,390.6 212.7,328.7 		"/>
		<polygon id="XMLID_432_" class="st28" points="216.1,326.6 216.1,330.7 202.7,322.4 202.7,318.3 		"/>
	</g>
	<polygon id="XMLID_423_" class="st31" points="269.8,293.5 216.1,326.6 202.7,318.3 256.4,285.3 	"/>
	<line id="XMLID_385_" class="st3" x1="220.7" y1="274.2" x2="220.7" y2="274.2"/>
	<polygon id="XMLID_384_" class="st32" points="240.9,327.8 240.9,358.4 229.5,365.3 229.5,334.8 	"/>
	<polygon id="XMLID_347_" class="st28" points="242.9,326.6 242.9,359.6 240.9,358.4 240.9,327.8 	"/>
	<polygon id="XMLID_346_" class="st26" points="242.9,359.6 229.5,367.9 229.5,365.3 240.9,358.4 	"/>
	<line id="XMLID_345_" class="st3" x1="330.2" y1="305.9" x2="330.2" y2="305.9"/>
	<polygon id="XMLID_344_" class="st3" points="330.2,281.1 330.2,281.1 328.1,282.4 	"/>
	<line id="XMLID_343_" class="st3" x1="330.2" y1="264.6" x2="330.2" y2="264.6"/>
	<polygon id="XMLID_342_" class="st3" points="330.2,239.8 330.2,239.9 328.1,241.1 328.1,241.1 	"/>
	<polyline id="XMLID_341_" class="st3" points="330.2,223.3 330.2,223.3 330.2,223.3 	"/>
	<polygon id="XMLID_340_" class="st3" points="330.2,198.6 330.2,198.6 328.1,199.8 	"/>
	<polygon id="XMLID_339_" class="st3" points="328.1,222.1 330.2,223.3 330.2,223.3 	"/>
	<line id="XMLID_337_" class="st3" x1="330.2" y1="182" x2="330.2" y2="182"/>
	<g id="XMLID_285_">
		<polygon id="XMLID_336_" class="st31" points="155.7,413.3 142.2,421.5 142.2,419 153.6,412 		"/>
		<polygon id="XMLID_293_" class="st31" points="155.7,372 142.2,380.3 142.2,377.7 153.6,370.7 		"/>
		<polygon id="XMLID_292_" class="st31" points="155.7,330.7 142.2,339 142.2,336.4 153.6,329.5 		"/>
		<polygon id="XMLID_290_" class="st31" points="155.7,289.4 142.2,297.7 142.2,295.1 153.6,288.2 		"/>
		<polygon id="XMLID_289_" class="st31" points="330.2,305.9 330.2,305.9 316.8,314.2 316.8,311.6 328.1,304.7 		"/>
		<polygon id="XMLID_288_" class="st31" points="330.2,264.6 330.2,264.6 316.8,272.9 316.8,270.3 328.1,263.4 		"/>
		<polygon id="XMLID_287_" class="st31" points="330.2,223.3 316.8,231.6 316.8,229 328.1,222.1 		"/>
		<polygon id="XMLID_286_" class="st31" points="330.2,182 330.2,182 316.8,190.3 316.8,187.7 328.1,180.8 		"/>
	</g>
	<g id="XMLID_241_">
		<polygon id="XMLID_249_" class="st28" points="155.7,388.5 155.7,413.3 153.6,412 153.6,389.8 		"/>
		<polygon id="XMLID_248_" class="st28" points="155.7,347.2 155.7,372 153.6,370.7 153.6,348.5 		"/>
		<polygon id="XMLID_247_" class="st28" points="155.7,305.9 155.7,330.7 153.6,329.5 153.6,307.2 		"/>
		<polygon id="XMLID_246_" class="st28" points="155.7,264.6 155.7,289.4 153.6,288.2 153.6,265.9 		"/>
		<polygon id="XMLID_245_" class="st28" points="330.2,281.1 330.2,305.9 328.1,304.7 328.1,282.4 		"/>
		<polygon id="XMLID_244_" class="st28" points="330.2,239.9 330.2,264.6 328.1,263.4 328.1,241.1 		"/>
		<polygon id="XMLID_243_" class="st28" points="330.2,198.6 330.2,223.3 328.1,222.1 328.1,199.8 		"/>
		<polygon id="XMLID_242_" class="st28" points="330.2,157.3 330.2,182 328.1,180.8 328.1,158.5 		"/>
	</g>
	<polygon id="XMLID_240_" class="st3" points="330.2,157.3 330.2,157.3 328.1,158.5 	"/>
	<line id="XMLID_239_" class="st3" x1="220.7" y1="224" x2="220.7" y2="224"/>
	<g id="XMLID_218_">
		<polygon id="XMLID_238_" class="st19" points="200.6,286.6 200.6,300.5 189.2,307.5 189.2,293.5 		"/>
		<polygon id="XMLID_237_" class="st19" points="220.7,274.2 220.7,288.2 209.4,295.1 209.4,281.1 		"/>
		<polygon id="XMLID_236_" class="st19" points="240.9,261.8 240.9,275.8 229.5,282.7 229.5,268.8 		"/>
		<polygon id="XMLID_235_" class="st19" points="261.7,248.7 261.7,262.8 250.4,269.7 250.4,255.7 		"/>
		<polygon id="XMLID_234_" class="st19" points="153.6,389.8 153.6,412 142.2,419 142.2,396.8 		"/>
		<polygon id="XMLID_233_" class="st19" points="153.6,348.5 153.6,370.7 142.2,377.7 142.2,355.5 		"/>
		<polygon id="XMLID_232_" class="st19" points="153.6,307.2 153.6,329.5 142.2,336.4 142.2,314.2 		"/>
		<polygon id="XMLID_231_" class="st19" points="153.6,265.9 153.6,288.2 142.2,295.1 142.2,272.9 		"/>
		<polygon id="XMLID_230_" class="st19" points="328.1,282.4 328.1,304.7 316.8,311.6 316.8,289.4 		"/>
		<polygon id="XMLID_229_" class="st19" points="328.1,241.1 328.1,263.4 316.8,270.3 316.8,248.1 		"/>
		<polygon id="XMLID_228_" class="st19" points="328.1,199.8 328.1,222.1 316.8,229 316.8,206.8 		"/>
		<polygon id="XMLID_227_" class="st19" points="328.1,158.5 328.1,180.8 316.8,187.7 316.8,165.5 		"/>
		<polygon id="XMLID_226_" class="st19" points="200.6,261.8 200.6,275.8 189.2,282.7 189.2,268.8 		"/>
		<polygon id="XMLID_225_" class="st19" points="220.7,249.4 220.7,263.4 209.4,270.3 209.4,256.4 		"/>
		<polygon id="XMLID_224_" class="st19" points="240.9,237 240.9,251 229.5,257.9 229.5,244 		"/>
		<polygon id="XMLID_223_" class="st19" points="261.7,224 261.7,238 250.4,244.9 250.4,231 		"/>
		<polygon id="XMLID_222_" class="st19" points="200.6,236.4 200.6,250.4 189.2,257.3 189.2,243.3 		"/>
		<polygon id="XMLID_221_" class="st19" points="220.7,224 220.7,238 209.4,244.9 209.4,231 		"/>
		<polygon id="XMLID_220_" class="st19" points="240.9,211.6 240.9,225.6 229.5,232.5 229.5,218.6 		"/>
		<polygon id="XMLID_219_" class="st19" points="261.7,198.6 261.7,212.6 250.4,219.5 250.4,205.5 		"/>
	</g>
	<g id="XMLID_205_">
		<polygon id="XMLID_217_" class="st31" points="202.7,301.8 189.2,310.1 189.2,307.5 200.6,300.5 		"/>
		<polygon id="XMLID_216_" class="st31" points="222.8,289.4 209.4,297.7 209.4,295.1 220.7,288.2 		"/>
		<polygon id="XMLID_215_" class="st31" points="242.9,277 229.5,285.3 229.5,282.7 240.9,275.8 		"/>
		<polygon id="XMLID_214_" class="st31" points="263.8,264 250.4,272.2 250.4,269.7 261.7,262.8 		"/>
		<polygon id="XMLID_213_" class="st31" points="202.7,277 189.2,285.3 189.2,282.7 200.6,275.8 		"/>
		<polygon id="XMLID_212_" class="st31" points="222.8,264.6 209.4,272.9 209.4,270.3 220.7,263.4 		"/>
		<polygon id="XMLID_211_" class="st31" points="242.9,252.2 229.5,260.5 229.5,257.9 240.9,251 		"/>
		<polygon id="XMLID_210_" class="st31" points="263.8,239.2 250.4,247.5 250.4,244.9 261.7,238 		"/>
		<polygon id="XMLID_209_" class="st31" points="202.7,251.6 189.2,259.9 189.2,257.3 200.6,250.4 		"/>
		<polygon id="XMLID_208_" class="st31" points="222.8,239.2 209.4,247.5 209.4,244.9 220.7,238 		"/>
		<polygon id="XMLID_207_" class="st31" points="242.9,226.8 229.5,235.1 229.5,232.5 240.9,225.6 		"/>
		<polygon id="XMLID_206_" class="st31" points="263.8,213.8 250.4,222.1 250.4,219.5 261.7,212.6 		"/>
	</g>
	<g id="XMLID_192_">
		<polygon id="XMLID_204_" class="st28" points="202.7,285.3 202.7,301.8 200.6,300.5 200.6,286.6 		"/>
		<polygon id="XMLID_203_" class="st28" points="222.8,272.9 222.8,289.4 220.7,288.2 220.7,274.2 		"/>
		<polygon id="XMLID_202_" class="st28" points="242.9,260.5 242.9,277 240.9,275.8 240.9,261.8 		"/>
		<polygon id="XMLID_201_" class="st28" points="263.8,247.5 263.8,264 261.7,262.8 261.7,248.7 		"/>
		<polygon id="XMLID_200_" class="st28" points="202.7,260.5 202.7,277 200.6,275.8 200.6,261.8 		"/>
		<polygon id="XMLID_199_" class="st28" points="222.8,248.1 222.8,264.6 220.7,263.4 220.7,249.4 		"/>
		<polygon id="XMLID_198_" class="st28" points="242.9,235.7 242.9,252.2 240.9,251 240.9,237 		"/>
		<polygon id="XMLID_197_" class="st28" points="263.8,222.7 263.8,239.2 261.7,238 261.7,224 		"/>
		<polygon id="XMLID_196_" class="st28" points="202.7,235.1 202.7,251.6 200.6,250.4 200.6,236.4 		"/>
		<polygon id="XMLID_195_" class="st28" points="222.8,222.7 222.8,239.2 220.7,238 220.7,224 		"/>
		<polygon id="XMLID_194_" class="st28" points="242.9,210.3 242.9,226.8 240.9,225.6 240.9,211.6 		"/>
		<polygon id="XMLID_193_" class="st28" points="263.8,197.3 263.8,213.8 261.7,212.6 261.7,198.6 		"/>
	</g>
	<polygon id="XMLID_191_" class="st22" points="90.2,381.2 90.2,395.2 101.6,402.2 101.6,388.2 	"/>
	<polygon id="XMLID_190_" class="st22" points="70.1,368.8 70.1,382.8 81.4,389.8 81.4,375.8 	"/>
	<polygon id="XMLID_189_" class="st22" points="43.6,352.6 43.6,366.6 55,373.5 55,359.6 	"/>
	<polygon id="XMLID_188_" class="st22" points="23.5,340.2 23.5,354.2 34.8,361.2 34.8,347.2 	"/>
	<polygon id="XMLID_187_" class="st22" points="90.2,348.3 90.2,362.3 101.6,369.3 101.6,355.3 	"/>
	<polygon id="XMLID_186_" class="st22" points="70.1,335.9 70.1,349.9 81.4,356.9 81.4,342.9 	"/>
	<polygon id="XMLID_185_" class="st22" points="43.6,319.7 43.6,333.7 55,340.6 55,326.7 	"/>
	<polygon id="XMLID_184_" class="st22" points="23.5,307.3 23.5,321.3 34.8,328.2 34.8,314.3 	"/>
	<polygon id="XMLID_183_" class="st22" points="90.2,315.3 90.2,329.3 101.6,336.2 101.6,322.3 	"/>
	<polygon id="XMLID_182_" class="st22" points="70.1,302.9 70.1,316.9 81.4,323.8 81.4,309.9 	"/>
	<polygon id="XMLID_181_" class="st22" points="43.7,286.7 43.7,300.6 55,307.6 55,293.6 	"/>
	<polygon id="XMLID_180_" class="st22" points="23.5,274.3 23.5,288.3 34.9,295.2 34.9,281.2 	"/>
	<polygon id="XMLID_179_" class="st22" points="90.2,281.6 90.2,295.6 101.6,302.6 101.6,288.6 	"/>
	<polygon id="XMLID_178_" class="st22" points="70.1,269.2 70.1,283.2 81.4,290.2 81.4,276.2 	"/>
	<polygon id="XMLID_177_" class="st22" points="43.7,253 43.7,267 55,273.9 55,260 	"/>
	<polygon id="XMLID_176_" class="st22" points="23.5,240.6 23.5,254.6 34.9,261.5 34.9,247.6 	"/>
	<polygon id="XMLID_175_" class="st22" points="90.2,249.2 90.2,263.2 101.6,270.2 101.6,256.2 	"/>
	<polygon id="XMLID_174_" class="st22" points="70.1,236.8 70.1,250.8 81.4,257.8 81.4,243.8 	"/>
	<polygon id="XMLID_173_" class="st22" points="43.7,220.6 43.7,234.6 55,241.5 55,227.6 	"/>
	<polygon id="XMLID_172_" class="st22" points="23.5,208.2 23.5,222.2 34.9,229.1 34.9,215.2 	"/>
	<g id="XMLID_151_">
		<polygon id="XMLID_171_" class="st31" points="88.1,396.5 101.6,404.8 101.6,402.2 90.2,395.3 		"/>
		<polygon id="XMLID_170_" class="st31" points="68,384.1 81.4,392.4 81.4,389.8 70.1,382.9 		"/>
		<polygon id="XMLID_169_" class="st31" points="41.6,367.9 55,376.1 55,373.6 43.6,366.6 		"/>
		<polygon id="XMLID_168_" class="st31" points="21.4,355.5 34.8,363.7 34.8,361.2 23.5,354.2 		"/>
		<polygon id="XMLID_167_" class="st31" points="88.1,363.6 101.5,371.9 101.5,369.3 90.2,362.4 		"/>
		<polygon id="XMLID_166_" class="st31" points="68,351.2 81.4,359.5 81.4,356.9 70,350 		"/>
		<polygon id="XMLID_165_" class="st31" points="41.5,335 55,343.2 55,340.7 43.6,333.7 		"/>
		<polygon id="XMLID_164_" class="st31" points="21.4,322.6 34.8,330.8 34.8,328.3 23.5,321.3 		"/>
		<polygon id="XMLID_163_" class="st31" points="88.1,330.6 101.6,338.8 101.6,336.3 90.2,329.3 		"/>
		<polygon id="XMLID_162_" class="st31" points="68,318.2 81.4,326.4 81.4,323.9 70.1,316.9 		"/>
		<polygon id="XMLID_161_" class="st31" points="41.6,301.9 55,310.2 55,307.6 43.6,300.7 		"/>
		<polygon id="XMLID_160_" class="st31" points="21.4,289.5 34.8,297.8 34.8,295.2 23.5,288.3 		"/>
		<polygon id="XMLID_159_" class="st31" points="88.1,296.9 101.6,305.2 101.6,302.6 90.2,295.7 		"/>
		<polygon id="XMLID_158_" class="st31" points="68,284.5 81.4,292.8 81.4,290.2 70.1,283.3 		"/>
		<polygon id="XMLID_157_" class="st31" points="41.6,268.3 55,276.5 55,274 43.6,267 		"/>
		<polygon id="XMLID_156_" class="st31" points="21.4,255.9 34.8,264.1 34.8,261.6 23.5,254.6 		"/>
		<polygon id="XMLID_155_" class="st31" points="88.1,264.5 101.6,272.8 101.6,270.2 90.2,263.3 		"/>
		<polygon id="XMLID_154_" class="st31" points="68,252.1 81.4,260.4 81.4,257.8 70.1,250.9 		"/>
		<polygon id="XMLID_153_" class="st31" points="41.6,235.9 55,244.1 55,241.6 43.6,234.6 		"/>
		<polygon id="XMLID_152_" class="st31" points="21.4,223.5 34.8,231.7 34.8,229.2 23.5,222.2 		"/>
	</g>
	<g id="XMLID_130_">
		<polygon id="XMLID_150_" class="st26" points="88.1,380 88.1,396.5 90.2,395.3 90.2,381.3 		"/>
		<polygon id="XMLID_149_" class="st26" points="68,367.6 68,384.1 70.1,382.9 70.1,368.9 		"/>
		<polygon id="XMLID_148_" class="st26" points="41.6,351.3 41.6,367.9 43.6,366.6 43.6,352.6 		"/>
		<polygon id="XMLID_147_" class="st26" points="21.4,339 21.4,355.5 23.5,354.2 23.5,340.2 		"/>
		<polygon id="XMLID_146_" class="st26" points="88.1,347.1 88.1,363.6 90.2,362.4 90.2,348.4 		"/>
		<polygon id="XMLID_145_" class="st26" points="68,334.7 68,351.2 70,350 70,336 		"/>
		<polygon id="XMLID_144_" class="st26" points="41.5,318.4 41.5,335 43.6,333.7 43.6,319.7 		"/>
		<polygon id="XMLID_143_" class="st26" points="21.4,306.1 21.4,322.6 23.5,321.3 23.5,307.3 		"/>
		<polygon id="XMLID_142_" class="st26" points="88.1,314.1 88.1,330.6 90.2,329.3 90.2,315.3 		"/>
		<polygon id="XMLID_141_" class="st26" points="68,301.7 68,318.2 70.1,316.9 70.1,302.9 		"/>
		<polygon id="XMLID_140_" class="st26" points="41.6,285.4 41.6,301.9 43.6,300.7 43.6,286.7 		"/>
		<polygon id="XMLID_139_" class="st26" points="21.4,273 21.4,289.5 23.5,288.3 23.5,274.3 		"/>
		<polygon id="XMLID_138_" class="st26" points="88.1,280.4 88.1,296.9 90.2,295.7 90.2,281.7 		"/>
		<polygon id="XMLID_137_" class="st26" points="68,268 68,284.5 70.1,283.3 70.1,269.3 		"/>
		<polygon id="XMLID_136_" class="st26" points="41.6,251.7 41.6,268.3 43.6,267 43.6,253 		"/>
		<polygon id="XMLID_135_" class="st26" points="21.4,239.3 21.4,255.9 23.5,254.6 23.5,240.6 		"/>
		<polygon id="XMLID_134_" class="st26" points="88.1,248 88.1,264.5 90.2,263.3 90.2,249.3 		"/>
		<polygon id="XMLID_133_" class="st26" points="68,235.6 68,252.1 70.1,250.9 70.1,236.9 		"/>
		<polygon id="XMLID_132_" class="st26" points="41.6,219.3 41.6,235.9 43.6,234.6 43.6,220.6 		"/>
		<polygon id="XMLID_131_" class="st26" points="21.4,206.9 21.4,223.5 23.5,222.2 23.5,208.2 		"/>
	</g>
	<polygon id="XMLID_129_" class="st31" points="196,54 196,74.7 169.1,91.2 169.1,70 	"/>
	<path id="XMLID_128_" class="st3" d="M196,74.7"/>
	<path id="XMLID_127_" class="st3" d="M142.2,74.7"/>
	<polygon id="XMLID_126_" class="st28" points="169.1,70 169.1,91.2 142.2,74.7 142.2,53.5 146,55.8 	"/>
	<polygon id="XMLID_125_" class="st19" points="169.1,37.5 169.1,70 146,55.8 142.2,53.5 	"/>
	<line id="XMLID_124_" class="st25" x1="330.2" y1="182" x2="330.2" y2="182"/>
	<line id="XMLID_123_" class="st25" x1="330.2" y1="223.3" x2="330.2" y2="223.3"/>
	<line id="XMLID_122_" class="st25" x1="330.2" y1="264.6" x2="330.2" y2="264.6"/>
	<line id="XMLID_121_" class="st25" x1="330.2" y1="305.9" x2="330.2" y2="305.9"/>
</g>
<g id="Layer_4">
	<rect id="XMLID_664_" x="1.3" y="-82.9" class="st3" width="348.7" height="450.7"/>
</g>
</svg>
