<?xml version="1.0" encoding="utf-8"?>
<!-- Generator: Adobe Illustrator 19.0.0, SVG Export Plug-In . SVG Version: 6.00 Build 0)  -->
<svg version="1.1" id="Layer_1" xmlns="http://www.w3.org/2000/svg" xmlns:xlink="http://www.w3.org/1999/xlink" x="0px" y="0px"
	 viewBox="-434.7 225.6 74 109" style="enable-background:new -434.7 225.6 74 109;" xml:space="preserve">
<style type="text/css">
	.st0{fill:#6BA517;}
	.st1{fill:none;stroke:#6BA517;stroke-width:3;stroke-linejoin:round;stroke-miterlimit:10;}
	.st2{fill:none;stroke:#6BA517;stroke-width:3;stroke-linecap:round;stroke-linejoin:round;stroke-miterlimit:10;}
	.st3{fill:none;stroke:#6BA517;stroke-width:3;stroke-linecap:round;stroke-linejoin:round;}
</style>
<g>
	<path class="st0" d="M-493.5,235.6c2,57.8,5.7,68.7-34.5,94.3c-15-9.5-23.9-17.2-29-26.4c-8.1-14.5-6.9-32.8-5.4-67.9H-493.5
		 M-493.5,232.6h-68.9c-1.6,0-2.9,1.3-3,2.9l-0.2,5.6c-1.3,31.9-2.1,49.5,6,64c5.2,9.2,13.9,17.2,30,27.5c0.5,0.3,1.1,0.5,1.6,0.5
		c0.6,0,1.1-0.2,1.6-0.5c38.6-24.6,38.1-37.4,36.3-84.8c-0.1-3.8-0.3-7.9-0.5-12.2C-490.6,233.9-491.9,232.6-493.5,232.6
		L-493.5,232.6z"/>
</g>
<path class="st1" d="M-498.6,306.8c0-6.4-4.5-8.4-10.1-8.4c-2.8,0-5.5,1.3-7.2,3.5c-1.3-5.1-7.6-8.9-12.1-8.9
	c-5,0-10.9,3.8-12.1,8.9c-1.8-2.2-4.4-3.4-7.2-3.5c-4.6,0-8.5,1.2-9.7,5.1c-0.2,0.8-0.4,1.8-0.4,2.8"/>
<path class="st1" d="M-531.5,277.1"/>
<path class="st1" d="M-523.9,293.7v-16.2c6.2-0.2,12.3,0.5,18.3,2.1v-11.8c-5.9,1.9-12.1,2.6-18.3,2.3v-10.9
	c4.1-0.2,9.2,0.9,14.2,2.5v-11.1c-5.1,1.4-9.8,2.3-14.2,1.8l1.7-11.1l-11.6-0.1l1.7,11.2c-4.5,0.4-9.3-0.4-14.2-1.8v11.1
	c5.3-1.7,10.3-2.8,14.2-2.5v10.9c-6.2,0.5-12.4-0.3-18.3-2.3v11.8c6-1.5,12.1-2.2,18.3-2.1v16.2"/>
<path class="st1" d="M-528.5,225.4"/>
<path class="st2" d="M-507.6,451.9h-10.2v-94.8h55.6l7.4,7.9l7.4,8.1v78.7h-47.4"/>
<path class="st2" d="M-422.7,327.5h-10.2v-94.8h55.6h14.8v16.1v78.7h-47.4L-422.7,327.5z"/>
<path class="st2" d="M-432.9,388.3"/>
<path class="st2" d="M-447.3,357.1"/>
<path class="st2" d="M-454.7,365"/>
<path class="st2" d="M-462.4,357.1v16.1h15.1"/>
<path class="st2" d="M-499.1,419.4L-499.1,419.4c0.3,1.1,1.4,1.8,2.5,1.5c0.3-0.1,0.5-0.2,0.7-0.4l0,0c0.9-0.7,2.2-0.5,2.9,0.4
	c0.4,0.6,0.5,1.4,0.3,2l0,0c-0.4,1.2,0.2,2.4,1.4,2.8c0.2,0.1,0.4,0.1,0.6,0.1l0,0c2-0.1,2.9,2.7,1.2,4l0,0c-1,0.8-1.2,2.2-0.4,3.2
	c0.1,0.1,0.2,0.3,0.4,0.4l0,0c1,0.7,1.2,2.1,0.5,3c-0.4,0.6-1.1,0.9-1.8,0.9l0,0c-1.2,0-2.2,1-2.2,2.2c0,0.2,0,0.5,0.1,0.7l0,0
	c0.4,1.1-0.1,2.3-1.1,2.7c-0.7,0.3-1.5,0.2-2-0.3l0,0c-0.9-0.7-2.2-0.6-2.9,0.3c-0.2,0.2-0.3,0.5-0.4,0.8l0,0
	c-0.2,1.1-1.3,1.8-2.4,1.6c-0.8-0.2-1.4-0.8-1.6-1.6l0,0c-0.3-1.1-1.4-1.8-2.5-1.5c-0.3,0.1-0.5,0.2-0.7,0.4l0,0
	c-0.9,0.7-2.2,0.5-2.9-0.4c-0.4-0.6-0.5-1.4-0.3-2l0,0c0.4-1.2-0.2-2.4-1.4-2.8c-0.2-0.1-0.4-0.1-0.6-0.1l0,0c-2,0.1-2.9-2.7-1.2-4
	l0,0c1-0.8,1.2-2.2,0.4-3.2c-0.1-0.1-0.2-0.3-0.4-0.4l0,0c-1-0.7-1.2-2.1-0.5-3c0.4-0.6,1.1-0.9,1.8-0.9l0,0c1.2,0,2.2-1,2.1-2.3
	c0-0.2-0.1-0.5-0.1-0.7l0,0c-0.4-1.1,0.1-2.3,1.1-2.7c0.7-0.3,1.5-0.2,2,0.3l0,0c0.9,0.7,2.2,0.6,2.9-0.3c0.2-0.2,0.3-0.5,0.4-0.8
	l0,0c0.3-1.1,1.4-1.7,2.5-1.5C-499.9,418.1-499.3,418.7-499.1,419.4z"/>
<path class="st2" d="M-494.7,441.4v21l-6.7-5.5l-6.1,5.5v-21"/>
<path class="st2" d="M-411,233.4v21l-6.7-5.5l-6.1,5.5v-21"/>
<line class="st2" x1="-501.4" y1="373.4" x2="-472.7" y2="373.4"/>
<path class="st3" d="M-501.4,382.6h39.3"/>
<path class="st3" d="M-501.4,391.7h39.3"/>
<line class="st2" x1="-501.4" y1="400.9" x2="-462.1" y2="400.9"/>
<g>
	<path class="st0" d="M-420.2,318c-0.1-0.2-0.3-0.4-0.5-0.6c-0.2-0.2-0.3-0.3-0.5-0.5s-0.4-0.2-0.5-0.3v0c0.4-0.1,0.8-0.3,1.1-0.5
		c0.3-0.2,0.6-0.5,0.9-0.8c0.2-0.3,0.4-0.6,0.6-1c0.1-0.4,0.2-0.8,0.2-1.2c0-2.2-1.5-3.4-4.5-3.4h-4.4v12.4h2.8v-4.7h0.8
		c0.2,0,0.3,0,0.5,0.1s0.3,0.2,0.4,0.3c0.1,0.1,0.3,0.3,0.4,0.5c0.1,0.2,0.3,0.4,0.4,0.6l1.9,3.2h3.2l-2.3-3.7
		C-419.9,318.4-420,318.2-420.2,318z M-422.4,314.9c-0.4,0.3-0.8,0.5-1.4,0.5h-1.2v-3.4h1.3c1.3,0,1.9,0.5,1.9,1.6
		C-421.8,314.1-422,314.5-422.4,314.9z"/>
	<polygon class="st0" points="-413.5,317.1 -409.4,317.1 -409.4,314.9 -413.5,314.9 -413.5,312.1 -409.1,312.1 -409.1,309.8 
		-416.3,309.8 -416.3,322.2 -408.8,322.2 -408.8,320 -413.5,320 	"/>
	<rect x="-407" y="316.6" class="st0" width="4.7" height="1.9"/>
	<path class="st0" d="M-395.3,309.8h-4.4v12.4h2.8V318h1.3c1.5,0,2.7-0.4,3.6-1.2c0.9-0.8,1.3-1.8,1.3-3
		C-390.6,311.2-392.2,309.8-395.3,309.8z M-395.8,315.8h-1.1V312h1.1c1.5,0,2.2,0.6,2.2,1.9C-393.6,315.2-394.3,315.8-395.8,315.8z"
		/>
	<path class="st0" d="M-385.6,309.8l-4.5,12.4h3l0.9-2.8h4.4l0.9,2.8h3l-4.4-12.4H-385.6z M-385.7,317.3l1.3-4.2
		c0.1-0.4,0.2-0.7,0.2-1.1h0.1c0,0.4,0.1,0.8,0.2,1.1l1.3,4.2H-385.7z"/>
	<path class="st0" d="M-368.7,317.4c-0.1-0.4-0.4-0.7-0.6-1c-0.3-0.3-0.6-0.6-1-0.8s-0.8-0.5-1.3-0.7c-0.4-0.1-0.7-0.3-1-0.4
		c-0.3-0.1-0.5-0.3-0.7-0.4c-0.2-0.1-0.4-0.3-0.5-0.5s-0.2-0.4-0.2-0.6c0-0.2,0-0.4,0.1-0.5c0.1-0.2,0.2-0.3,0.4-0.4
		s0.4-0.2,0.7-0.3c0.3-0.1,0.5-0.1,0.9-0.1c0.2,0,0.5,0,0.7,0.1c0.3,0,0.5,0.1,0.8,0.2c0.3,0.1,0.5,0.2,0.8,0.3
		c0.2,0.1,0.5,0.2,0.7,0.4v-2.6c-0.4-0.2-0.9-0.3-1.4-0.4c-0.5-0.1-1.1-0.1-1.7-0.1c-0.7,0-1.3,0.1-1.9,0.2
		c-0.6,0.1-1.1,0.4-1.6,0.7c-0.4,0.3-0.8,0.7-1.1,1.1c-0.3,0.5-0.4,1-0.4,1.7c0,0.8,0.2,1.5,0.7,2.1c0.5,0.6,1.2,1.1,2.2,1.5
		c0.4,0.2,0.7,0.3,1.1,0.5c0.3,0.1,0.6,0.3,0.9,0.5c0.2,0.2,0.4,0.3,0.6,0.5c0.1,0.2,0.2,0.4,0.2,0.6c0,0.2,0,0.3-0.1,0.5
		c-0.1,0.2-0.2,0.3-0.4,0.4s-0.4,0.2-0.7,0.3c-0.3,0.1-0.6,0.1-0.9,0.1c-0.6,0-1.2-0.1-1.8-0.3c-0.6-0.2-1.1-0.5-1.6-0.9v2.8
		c0.4,0.2,1,0.4,1.6,0.5s1.3,0.2,1.9,0.2c0.7,0,1.3-0.1,1.9-0.2c0.6-0.1,1.1-0.3,1.6-0.6s0.8-0.7,1.1-1.1c0.3-0.5,0.4-1.1,0.4-1.7
		C-368.5,318.2-368.6,317.8-368.7,317.4z"/>
</g>
</svg>
