<svg xmlns="http://www.w3.org/2000/svg" viewBox="7414.135 8515.601 85.876 110.451"><defs><style>.a,.b{fill:none;stroke:#fff;stroke-width:2px;}.a{stroke-miterlimit:10;}</style></defs><g transform="translate(7415.135 8516.601)"><path class="a" d="M124.166,308.791H114V214h55.625l7.385,7.942,7.385,8.145v78.7H137.017" transform="translate(-114 -214)"/><path class="a" d="M202.5,244.6" transform="translate(-117.624 -213.444)"/><path class="a" d="M187.5,214" transform="translate(-117.01 -214)"/><path class="a" d="M179.7,221.8" transform="translate(-116.69 -213.858)"/><path class="a" d="M171.7,214v16.087h15.057" transform="translate(-116.363 -214)"/><path class="a" d="M132.779,275.227h0a2.07,2.07,0,0,0,3.261,1.12h0a2.072,2.072,0,0,1,3.165,2.444h0a2.231,2.231,0,0,0,2.014,2.953h0c2.014-.1,2.877,2.749,1.247,3.971h0a2.27,2.27,0,0,0,0,3.564h0a2.184,2.184,0,0,1-1.247,3.971h0A2.2,2.2,0,0,0,139.2,296.2h0a2.072,2.072,0,0,1-3.165,2.444h0a2.04,2.04,0,0,0-3.261,1.12h0a2.007,2.007,0,0,1-3.932,0h0a2.07,2.07,0,0,0-3.261-1.12h0a2.072,2.072,0,0,1-3.165-2.444h0a2.23,2.23,0,0,0-2.014-2.953h0c-2.014.1-2.877-2.749-1.247-3.971h0a2.27,2.27,0,0,0,0-3.564h0a2.184,2.184,0,0,1,1.247-3.971h0a2.2,2.2,0,0,0,2.014-2.953h0a2.072,2.072,0,0,1,3.165-2.444h0a2.04,2.04,0,0,0,3.261-1.12h0A2.029,2.029,0,0,1,132.779,275.227Z" transform="translate(-114.174 -212.915)"/><path class="a" d="M137.451,298.7v20.974l-6.713-5.5-6.138,5.5V298.7" transform="translate(-114.434 -212.461)"/><line class="a" x2="28.772" transform="translate(16.304 16.291)"/><path class="b" d="M0,0H39.321" transform="translate(16.304 25.454)"/><path class="b" d="M0,0H39.321" transform="translate(16.304 34.618)"/><line class="a" x2="39.321" transform="translate(16.304 43.781)"/></g></svg>